<svg xmlns="http://www.w3.org/2000/svg" id="Layer_2" data-name="Layer 2" viewBox="0 0 2012.44 2012.44"><defs><style>      .cls-1 {        fill: #eab866;      }      .cls-2 {        fill: #f1ca8d;      }      .cls-3 {        fill: #fff;      }      .cls-4 {        fill: #f0c98a;      }      .cls-5 {        fill: #f4cb8f;      }      .cls-6 {        fill: #f5961b;      }      .cls-7 {        fill: #233447;      }      .cls-8 {        fill: #f0c989;      }    </style></defs><g id="Layer_1-2" data-name="Layer 1"><circle class="cls-3" cx="1006.22" cy="1006.22" r="1006.22"></circle><g><path class="cls-7" d="M1922.12,839.82v74.8l-3.05,25.95c-33.86,256.97-192.84,408.59-452.55,429.03l-883.13-.08,139.97-230.53c30.94.35,61.93-.35,92.88-.03,162.79,1.63,325.47,3.71,488.48,4.58,58.12.31,118.36,8.78,174.72-8.34,130.66-39.69,190.73-144.93,178.59-279.35-11.53-127.65-102.82-204.93-226.61-219.14l-179.19-.18-139.15-233.32h357.19c3.16.55,6.21,1.05,9.16,1.53,33.94.61,68.31,10.5,100.68,20.67,163.04,51.26,287.76,160.46,330.34,329.82,6.09,24.18,11.28,48.85,10.15,73.9.44,3.42.95,6.98,1.53,10.69Z"></path><path class="cls-6" d="M668.86,455.13l-508.59,908.82-4.34,4.82c-21.65,1.82-43.8.29-65.62.79v-3.05L639.86,404.75l3.51,1.57c10.31,14.12,22.42,31.68,25.49,48.81Z"></path><path class="cls-7" d="M707.03,403.22l392.31,696.12h-58.77c-64.91-109.76-128.02-220.71-191.58-331.27-13.57-13.88-25.37-33.2-30.53-51.9-9.85-17.14-19.14-34.73-29-51.9-14.36-15.74-25.63-34.63-32.06-54.96-8.73-15.19-17.22-30.6-25.95-45.8-12.79-13.32-22.37-29.57-27.48-47.32-11.68-20.35-23.43-40.72-35.11-61.06-9.63-16.77-18.03-34.39-29-50.38v-1.53h67.17Z"></path><polygon class="cls-7" points="824.57 403.22 1218.4 1099.34 1156.58 1099.34 769.61 403.22 824.57 403.22"></polygon><polygon class="cls-7" points="1059.65 403.22 1462.64 1099.34 1401.58 1099.34 1006.22 403.22 1059.65 403.22"></polygon><polygon class="cls-7" points="943.63 403.22 1331.37 1099.34 1280.23 1099.34 893.26 403.22 943.63 403.22"></polygon><path class="cls-1" d="M1622.37,1475.08c-42.04,16.99-52.39,74.74-26.01,109.58,10.87,14.37,23.81,19.05,40.32,24.56h1.53c3.42-1.28,7.27-1.28,10.69,0h3.05c3.42-1.28,7.27-1.28,10.69,0h4.58c16.7-7.28,30.9-11.95,40.94-28.52,36.16-59.7-17.2-133.33-85.78-105.62ZM1646.61,1589.35c-55.98-4.08-56.47-91.87-5.72-98.8,73.81-10.08,75.6,103.87,5.72,98.8Z"></path><path class="cls-1" d="M354.4,1609.22c.93-4.53-2.27-2.67-4.86-3.46-36.08-10.96-48.82-40.59-45.49-76.66,5.41-58.72,79.33-79.66,118.99-39.61.2.9-11.24,12.81-12.88,12.85-1.38.03-17.8-10.18-24.89-11.77-71.48-15.98-84.42,98.29-12.04,98.21,5.66,0,33.08-6.6,33.08-12.38v-26.72h-35.87c-3.63,0-1.99-15.06-2.29-18.32h58.01v54.19c0,1.99-15.43,13.58-18.41,15.18-6.02,3.22-13.42,4.03-18.23,8.49h-7.63c-6.53-1.3-13.3-1.33-19.84,0h-7.63Z"></path><path class="cls-1" d="M998.59,1609.22l-15.46-8.2c-11.69-5.29-25.75-25.93-25.75-38.36v-90.83c4.49.89,19.59-2.3,21.16,2.5l.35,85.14c4.86,26.69,35.34,38.8,57.07,22.23,5.6-4.27,13.01-15.12,13.01-22.1v-87.78h21.37v90.83c0,7.69-8.71,25.06-14.28,30.75-7.99,8.18-18.72,10.72-28.46,15.81h-4.58c-5.49-1.3-11.31-1.34-16.79,0h-7.63Z"></path><path class="cls-4" d="M381.88,1609.22h-19.84c4.59-2.54,14.94-2.59,19.84,0Z"></path><path class="cls-5" d="M1023.01,1609.22h-16.79c3.57-2.54,12.92-2.61,16.79,0Z"></path><path class="cls-8" d="M1648.88,1609.22h-10.69c1.93-2.53,8.76-2.53,10.69,0Z"></path><path class="cls-2" d="M1662.62,1609.22h-10.69c1.93-2.53,8.76-2.53,10.69,0Z"></path><path class="cls-6" d="M731.45,563.51l-455.66,806.03h-58.77l486.95-853.36c9.06,15.79,18.4,31.53,27.48,47.32Z"></path><path class="cls-6" d="M789.46,664.27l-393.07,705.28h-61.82l422.84-760.24c10.55,18.37,21.5,36.57,32.06,54.96Z"></path><path class="cls-6" d="M848.99,768.08l-336.59,601.47h-58.77l364.83-653.38c9.79,17.04,20.56,34.55,30.53,51.9Z"></path><path class="cls-1" d="M747.5,1595.47c-10.35-12.35-22.32-23.63-32.82-35.87-.5-3.36.52-1.79,2.21-2.31,12.38-3.74,20.62-6.38,27.05-18.78,15.43-29.77-3.04-63.19-36.15-66.68-21.31-2.24-46.22,1.66-67.93,0v134.34h21.37v-45.8h28.24c12.7,13.77,24.32,28.61,37.45,42.01,1.27,1.28,1.28,3.79,1.48,3.79h25.95c-.73-3.69-4.44-7.83-6.85-10.7ZM663.52,1540.53c-.17,0-2.29-2.12-2.29-2.29v-44.27c0-.41,1.79-1.51,2.29-2.29h38.16c.5,0,8.88,1.89,9.95,2.26,16.95,5.79,21.13,30.55,7.54,41.19-1.25.98-10.59,5.4-11.39,5.4h-44.27Z"></path><path class="cls-1" d="M1367.99,1477.17c-2.7-1.22-15.43-5.34-17.54-5.34h-67.93v134.34h21.37v-41.22h51.14c2.4,0,15.43-6.11,18.06-7.88,27.36-18.56,25.04-66.24-5.1-79.9ZM1358.77,1541.23c-1.19.78-7.69,3.88-8.32,3.88h-46.56v-51.14c0-.17,2.12-2.29,2.29-2.29h38.16c.5,0,8.88,1.89,9.95,2.26,19.22,6.56,21.08,36.56,4.47,47.29Z"></path></g></g></svg>