<svg xmlns="http://www.w3.org/2000/svg" id="Layer_2" data-name="Layer 2" viewBox="0 0 1199.94 790"><defs><style>      .cls-1 {        fill: #eab866;      }      .cls-2 {        fill: #f1ca8d;      }      .cls-3 {        fill: #fff;      }      .cls-4 {        fill: #f0c98a;      }      .cls-5 {        fill: #f4cb8f;      }      .cls-6 {        fill: #f5961b;      }      .cls-7 {        fill: #f0c989;      }    </style></defs><g id="Layer_1-2" data-name="Layer 1"><g><path class="cls-3" d="M1199.94,286v49l-2,17c-22.18,168.33-126.32,267.65-296.45,281.04l-578.5-.05,91.69-151.01c20.27.23,40.57-.23,60.84-.02,106.64,1.07,213.2,2.43,319.98,3,38.07.2,77.53,5.75,114.45-5.46,85.59-26,124.94-94.94,116.99-182.99-7.55-83.62-67.35-134.24-148.44-143.55l-117.38-.12L669.97,0h233.98c2.07.36,4.07.69,6,1,22.23.4,44.75,6.88,65.95,13.54,106.8,33.58,188.5,105.11,216.39,216.05,3.99,15.84,7.39,32,6.65,48.41.29,2.24.62,4.57,1,7Z"></path><path class="cls-6" d="M378.98,34L45.83,629.33l-2.84,3.16c-14.18,1.19-28.69.19-42.98.52v-2L359.98,1l2.3,1.03c6.75,9.25,14.69,20.75,16.7,31.97Z"></path><path class="cls-3" d="M403.98,0l256.99,456h-38.5c-42.52-71.9-83.86-144.58-125.49-217-8.89-9.09-16.62-21.75-20-34-6.45-11.23-12.54-22.75-19-34-9.41-10.31-16.79-22.68-21-36-5.72-9.95-11.28-20.04-17-30-8.38-8.72-14.65-19.37-18-31-7.65-13.33-15.35-26.67-23-40-6.31-10.99-11.81-22.53-19-33V0h44Z"></path><polygon class="cls-3" points="480.98 0 738.96 456 698.46 456 444.98 0 480.98 0"></polygon><polygon class="cls-3" points="634.97 0 898.95 456 858.96 456 599.97 0 634.97 0"></polygon><polygon class="cls-3" points="558.97 0 812.96 456 779.46 456 525.97 0 558.97 0"></polygon><path class="cls-1" d="M1003.58,702.13c-27.54,11.13-34.32,48.96-17.04,71.78,7.12,9.41,15.6,12.48,26.41,16.09h1c2.24-.84,4.76-.84,7,0h2c2.24-.84,4.76-.84,7,0h3c10.94-4.77,20.24-7.83,26.82-18.68,23.69-39.11-11.27-87.34-56.19-69.19ZM1019.46,776.98c-36.67-2.67-36.99-60.18-3.75-64.72,48.35-6.6,49.52,68.04,3.75,64.72Z"></path><path class="cls-1" d="M172.99,790c.61-2.96-1.48-1.75-3.18-2.27-23.63-7.18-31.98-26.59-29.8-50.22,3.54-38.46,51.96-52.18,77.94-25.95.13.59-7.36,8.39-8.43,8.42-.91.02-11.66-6.67-16.3-7.71-46.82-10.47-55.3,64.39-7.89,64.34,3.71,0,21.67-4.32,21.67-8.11v-17.5h-23.5c-2.38,0-1.3-9.87-1.5-12h38v35.5c0,1.3-10.11,8.9-12.06,9.94-3.94,2.11-8.79,2.64-11.94,5.56h-5c-4.28-.85-8.71-.87-13,0h-5Z"></path><path class="cls-1" d="M594.97,790l-10.13-5.37c-7.66-3.46-16.87-16.99-16.87-25.13v-59.5c2.94.58,12.83-1.51,13.86,1.64l.23,55.77c3.19,17.48,23.15,25.42,37.38,14.56,3.67-2.8,8.53-9.91,8.53-14.47v-57.5h14v59.5c0,5.04-5.71,16.41-9.35,20.15-5.23,5.36-12.27,7.02-18.64,10.35h-3c-3.59-.85-7.41-.88-11,0h-5Z"></path><path class="cls-4" d="M190.99,790h-13c3.01-1.67,9.79-1.7,13,0Z"></path><path class="cls-5" d="M610.97,790h-11c2.34-1.66,8.46-1.71,11,0Z"></path><path class="cls-7" d="M1020.95,790h-7c1.26-1.65,5.74-1.65,7,0Z"></path><path class="cls-2" d="M1029.95,790h-7c1.26-1.65,5.74-1.65,7,0Z"></path><path class="cls-6" d="M419.98,105L121.49,633h-38.5L401.98,74c5.94,10.34,12.05,20.65,18,31Z"></path><path class="cls-6" d="M457.98,171l-257.49,462h-40.5L436.98,135c6.91,12.03,14.08,23.96,21,36Z"></path><path class="cls-6" d="M496.97,239l-220.49,394h-38.5l238.99-428c6.41,11.16,13.47,22.64,20,34Z"></path><path class="cls-1" d="M430.49,780.99c-6.78-8.09-14.62-15.48-21.5-23.5-.33-2.2.34-1.17,1.45-1.51,8.11-2.45,13.51-4.18,17.72-12.3,10.11-19.5-1.99-41.39-23.68-43.68-13.96-1.47-30.28,1.09-44.5,0v88h14v-30h18.5c8.32,9.02,15.93,18.74,24.53,27.52.83.84.84,2.48.97,2.48h17c-.48-2.42-2.91-5.13-4.49-7.01ZM375.48,745c-.11,0-1.5-1.39-1.5-1.5v-29c0-.27,1.17-.99,1.5-1.5h25c.33,0,5.82,1.24,6.52,1.48,11.1,3.79,13.84,20.01,4.94,26.98-.82.64-6.94,3.54-7.46,3.54h-29Z"></path><path class="cls-1" d="M836.95,703.5c-1.77-.8-10.11-3.5-11.49-3.5h-44.5v88h14v-27h33.5c1.57,0,10.11-4,11.83-5.16,17.92-12.16,16.4-43.39-3.34-52.34ZM830.91,745.46c-.78.51-5.04,2.54-5.45,2.54h-30.5v-33.5c0-.11,1.39-1.5,1.5-1.5h25c.33,0,5.82,1.24,6.52,1.48,12.59,4.3,13.81,23.95,2.93,30.98Z"></path></g></g></svg>