<?xml version="1.0" encoding="UTF-8"?>
<svg xmlns="http://www.w3.org/2000/svg" xmlns:xlink="http://www.w3.org/1999/xlink" id="Layer_1" x="0px" y="0px" viewBox="0 0 5000 5000" style="enable-background:new 0 0 5000 5000;" xml:space="preserve">
  <g id="_x33_7_1_">	<path d="M3459.264,1277.739c9.174-6.149-0.08-20.068-9.313-13.905c-77.546,51.919-185.271,51.061-262.015-2.058   c-3.758-2.622-9.018-1.692-11.633,2.117c-2.63,3.798-1.683,9.01,2.125,11.642   C3260.62,1332.448,3376.113,1333.389,3459.264,1277.739z"></path>	<path d="M4149.678,1764.331c44.545-28.41,70.459-56.98,66.842-77.277c0.043-0.062,0.12-0.085,0.161-0.151   c1.536-2.434,1.716-5.49,0.458-8.088c-165.157-343.294-394.177-508.803-720.005-520.318c1.767-21.403-16.651-44.746-61.814-43.951   c2.957-17.372,4.073-35.069,3.316-52.538c51.139-20.503,102.389-63.947,140.688-103.61c35.302,7.593,74.253,11.617,104.596-10.009   c16.502-11.757,32-30.326,43.106-50.095c16.092-20.941,27.993-49.371,26.081-78.854c12.625-7.802,36.441-26.069,46.002-56.595   c3.505-0.475,5.603-2.439,6.642-4.978c0,0,2.287-5.571,5.424-15.505c14.821-45.367,43.707-161.171-7.924-257.376   c-31.339-58.419-87.12-99.079-165.81-120.835c-141.726-39.206-227.898,10.44-275.183,58.968   c-42.352,43.486-61.387,92.765-67.024,109.692c-104.457,3.032-174.78,37.94-191.658,62.302c-7.882,11.372-4.196,18.046,4.554,26.22   c32.798,29.598,84.791,27.592,106.757,50.806c-18.097,49.638-22.271,104.141-24.55,156.476   c-3.137,72.105-1.635,152.738,56.321,197.083c7.989,6.099,15.871,11.474,23.703,16.433c-0.383,1.973-1.111,7.255-12.41,63.887   c-30.878,0.259-59.485,5.059-78.309,29.718c-191.506,19.878-325.124,157.851-406.337,277.316   c-23.72-130.335-23.655-255.043-0.875-378.776c0.935-5.177-3.06-9.876-8.235-9.876h-783.363c-4.543,0-8.267,3.636-8.366,8.187   c-0.015,1.134-2.25,114.301,12.132,267.157c-1.827,0.604-3.908,0.937-5.595,1.735c-25.652,12.488-36.391,47.289-19.837,73.567   c-36.616,19.604-40.567,69.492-7.451,95.346c-17.951,17.116-22.928,47.457-1.188,67.24c-13.859,9.132-17.573,28.661,1.661,48.368   c23.014,24.033,50.611,31.462,84.781,34.967c57.403,237.479,148.204,403.804,270.662,494.52c1.454,1.071,3.186,1.641,4.982,1.641   c0.099,0,0.196,0,0.295-0.007l554.28-20.024c-6.739,15.358-13.835,31.139-21.495,47.497c-1.944,4.168-0.162,9.127,3.987,11.103   l22.696,10.755c-113.055,404.311-313.531,1174.699-385.584,1628.437c-0.065,0.29-0.102,0.566-0.139,0.858   c-3.361,21.214-6.547,41.982-9.326,61.737c-3.234,22.294,2.091,45.308,15.816,68.371c24.155,40.767,60.366,68.16,101.246,86.067   c-1.347,19.989-2.685,28.237-2.678,41.082c-0.746-0.305-1.489-0.631-2.312-0.716c-8.546-0.875-20.211-2.117-29.166,7.303   c-16,16.893-12.754,17.569-22.221,44.647c-6.873,19.659-13.84,39.817-5.392,60.453c-5.376,0.87-29.419,19.279-77.385,28.401   c20.042-29.327,19.087-81.513,16.996-118.103c-0.44-18.168-9.885-30.473-26.143-33.805c-2.065-0.372-5.229-0.633-8.658,0.025   v-107.07c0-4.625-3.743-8.366-8.366-8.366h-260.349c-0.028,0-0.053,0.015-0.082,0.015h-543.39c-4.625,0-8.366,3.743-8.366,8.365   v631.957c0,4.625,3.741,8.365,8.366,8.365h543.554c0.057,0,0.107-0.032,0.164-0.032h260.103c4.623,0,8.366-3.743,8.366-8.366   V4457.88c148.691-8.021,156.173,46.249,264.513,46.249c71.538,0,137.893-24.871,135.861-96.058   c-0.073-2.553-1.317-4.738-3.154-6.229c13.086-12.667,21.654-28.569,21.731-48.049c0.181-49.264-28.838-108.327-57.718-141.555   c2.301-20.477-3.099-52.242-7.002-74.081c-2.287-12.63-9.214-20.245-15.93-27.613c-3.08-2.971-3.495-5.095-7.51-6.189   c6.299-17.593,7.559-32.129,16.656-63.577c35.276-2.065,65.411-7.364,84.625-13.122c39.328-11.846,70.292-43.25,80.845-82.186   c280.764-1164.957,252.441-1059.749,294.419-1210.648c-9.043,411.076-5.132,889.421,28.426,1235.581   c2.418,25.514,13.92,48.128,32.385,63.657c50.888,43.001,113.393,70.688,179.411,80.672c3.908,19.15,6.069,33.375,10.638,48.422   c-12.194,2.153-23.014,6.184-28.128,15.655c-11.091,20.568-7.707,20.399-9.788,48.896c-1.502,20.779-2.97,42.064,10.593,59.778   c-5.088,2.364-22.527,25.477-67.126,47.239c11.707-34.185-3.445-83.315-14.574-118.079c-9.011-29.687-38.683-30.941-48.854-18.488   c-5.767,7.042-5.359,16.838-4.574,23.529c3.055,27.401,10.002,56.085,29.353,100.731c-12.843-9.421-61.325-45.26-76.378-50.529   c-24.319-12.43-49.443-26.238-70.29-9.706c-14.402,11.604-17.931,29.803-3.808,46.419c11.65,13.708,22.418,18.406,39.051,24.949   c13.554,5.286,37.493,18.068,57.651,25.8c-62.52,3.905-125.168-20.769-180.489,7.713c-49.896,25.689-80.787,97.354-36.518,157.046   c2.491,46.739,16,69.483,56.729,95.646c136.492,87.66,270.929-42.871,410.831-45.243c36.916-0.838,76.29,8.095,116.808,4.436   c39.051-3.563,79.898-16.96,109.277-35.849c39.165-25.194,53.365-59.931,41.077-100.461c-0.738-2.428-2.508-4.185-4.665-5.133   c9.366-15.646,13.512-33.235,8.488-52.053c-12.721-47.581-56.184-97.095-92.765-121.687c-3.144-20.4-16.719-49.71-26.119-69.589   c-5.49-11.6-14.181-17.14-22.597-22.49c-3.79-2.086-4.711-4-8.874-4.017c0.91-11.464,0.662-61.688-2.003-82.977   c18.917-8.443,37.895-17.827,57.346-27.854c36.011-18.724,59.279-54.915,60.733-94.93l-17.907-857.203   c132.468-12.891,602.48-75.095,751.664-317.801c0.997-1.618,1.406-3.522,1.176-5.407c-73.638-580.634-64.611-552.706-73.166-556.3   c-8.615-3.644-4.976,2.232-102.377,69.594c-20.3-26.814-18.001-23.812-19.86-25.412c-4.623-21.928-9.542-43.49-14.814-64.8   c5.913-9.537,3.147-14.156-4.884-49.807c-1.616-6.903-6.417-11.993-12.294-14.384   C4268.593,2018.959,4220.305,1901.578,4149.678,1764.331z M4188.316,2177.722c38.469-28.51,90.971,12.095,72.629,56.501   c-1.265,1.673-8.679,25.653-37.974,29.501C4172.708,2270.144,4149.151,2206.36,4188.316,2177.722z M4250.041,2161.362   c-37.749-23.387-83.344-2.792-95.059,36.474c-10.141,2.778-20.33,5.252-30.542,7.295c-1.355,0.286-2.455,1.021-3.691,1.533   c-54.683-127.969-125.354-291.261-190.735-393.434c7.061-32.258,62.615-64.501,88.015-73.06   c33.292-11.374,66.411-10.474,99.416-1.454c78.937,149.392,131.6,273.906,168.994,402.69   C4279.165,2145.389,4270.724,2151.096,4250.041,2161.362z M4090.969,2420.498c-3.696,6.417-8.685,15.612-9.788,25.866   c-107.842,43.324-211.805,64.521-315.478,64.534l-3.502-166.136c17.489-2.7,35.035-5.762,52.652-9.4   c5.094-1.059,8.039-6.502,6.03-11.389c-32.718-79.281-138.948-503.118-96.287-732.606c7.904,27.066,15.85,52.54,23.61,77.35   c55.984,178.912,42.395,172.879,53.177,175.529c16.494,17.774,67.134,19.38,131.767,5.991   c60.858,103.292,125.098,252.688,175.22,370.014c-0.694,2.732-0.909,5.625-0.325,8.635c1.673,9.204,3.181,18.91,5.018,27.945   c1.618,8.946,9.105,15.351,17.896,16.204c7.577,17.638,14.722,34.117,21.34,49.071   C4129.423,2354.349,4109.441,2388.331,4090.969,2420.498z M3795.247,737.208c0,0.023-0.017,0.057-0.017,0.08   c-0.736,2.337-1.422,4.404-2.026,6.194l-83.543-36.347c72.204-119.05,53.468-220.023,36.923-267.772   C3827.771,513.223,3828.652,635.035,3795.247,737.208z M3374.236,434.794c64.18-65.894,151.219-84.269,258.763-54.516   c33.452,9.251,62.215,22.236,86.658,38.484c3.754,6.626,65.24,120.313-17.225,267.63   c-85.977-71.886-269.506-143.608-389.64-153.019C3319.65,514.547,3337.961,472.052,3374.236,434.794z M3301.575,549.404   c0.107-0.002,0.182-0.094,0.288-0.102c117.706,5.899,306.872,79.045,391.999,151.649c-0.326,0.53-0.631,1.057-0.962,1.588   c-54.715,15.297-109.987,18.362-165.631,5.838c-137.917-30.245-198.317-123.269-308.925-119.814   c-0.052,0.002-0.042,0.003-0.049,0.003c-48.962,1.534-90.375,22.067-100.555,18.905   C3110.009,599.876,3179.557,551.464,3301.575,549.404z M3207.07,829.352c1.879-43.364,5.09-88.191,16.604-129.871   c2.03,2.356,5.269,3.508,8.542,2.647c17.973-5.016,37.776-4.927,55.717,0.212c10.818,3.107,15.092-13.091,4.608-16.079   c-21.143-6.062-43.56-6.159-64.802-0.261c-0.003,0-0.003,0.002-0.008,0.005c2.185-6.639,5.255-16.204,12.781-31.589   c28.977,2.635,58.409-4.434,84.02-20.178c69.336,38.818,122.026,72.793,199.91,90.628c-0.952,14.509,3.392,28.778,18.421,39.034   c45.845,31.453-22.42,102.226-8.366,121.968c5.165,7.382,14.993,8.098,25.796,3.109c3.353,1.116,7.086,0.184,9.294-2.709   c2.158-2.826,4.27-5.685,6.405-8.533c5.387-5.232,10.469-11.894,15.085-19.898c14.827-19.81,27.096-36.207,45.223-53.411   c21.306-20.308,40.814-33.185,66.5-29.566c29.035,4.171,45.199,45.31,24.541,90.618c-7.892,17.14-22.515,39.499-47.252,48.65   c-18.11,6.436-39.063,5.956-62.889-8.006c-0.949-1.193-2.207-2.133-3.693-2.68c-3.318-1.201-7.01-0.212-9.264,2.46   c-51.894,61.402-101.075,104.104-150.337,130.549c-70.536,37.824-131.864,25.746-197.083-24.043   C3205.271,972.965,3204.112,897.233,3207.07,829.352z M3422.084,1067.617c0.624,30.493-4.402,49.945-5.22,55.643   c-1.406,8.21-3.333,19.443-7.891,24.215c-30.026,31.585-115.931,24.272-132.461,0.171c-10.216-14.807-2.71-32.358,9.214-96.454   C3334.887,1077.939,3377.549,1081.109,3422.084,1067.617z M3214.127,1129.617c12.001-5.151,25.564-6.639,41.216-6.855   c-1.066,11.857,0.079,23.78,7.377,34.361c21.043,30.687,95.664,34.644,130.01,20.032c30.292-12.95,35.726-24.508,39.668-45.807   c15.453-0.495,32.544,0.5,42.927,11.878c15.602,17.093-5.732,38.832-28.12,49.916c-56.043,27.761-128.523,33.046-204.06,14.869   c-12.01-2.883-24.542-6.462-34.868-13.03C3180.933,1177.624,3178.266,1145.025,3214.127,1129.617z M2003.3,1313.57   c31.354,1.725,44.13,38.142,27.075,59.262c-6.047,7.475-12.092,9.077-25.98,6.887c-0.032-0.008-0.08-0.017-0.13-0.025   c-14.525-2.075-19.492-5.394-23.496,1.422c0.05-0.139,0.099-0.278,0.13-0.417c0.753-2.941-0.13-6.062-2.336-8.153   C1957.756,1352.745,1968.78,1311.706,2003.3,1313.57z M1945.852,1422.258c0.949-16.201,13.43-31.478,29.051-35.554   c2.207-0.572,4.035-2.001,5.148-3.922c-1.541,4.509,1.337,9.788,6.437,10.735c1.85,0.448,6.948,0.969,13.316,3.922   c26.233,11.898,35.802,51.106,10.956,66.388c-4.929,2.96-10.997,3.308-20.954,1.133c-10.581-2.272-14.357,13.335-4.036,16.234   c9.639,2.705,22.147,7.303,29.41,14.156c10.524,9.127,17.595,26.869,6.493,38.187c-11.625,10.844-29.35,7.278-44.042,1.28   c-15.44-6.274-23.496-14.688-24.607-25.644c-1.193-12.843,6.226-26.248,17.63-31.885c6.386-3.159,6.139-12.396-0.425-15.195   C1955.231,1455.687,1944.757,1438.598,1945.852,1422.258z M1964.218,1574.376c-11.543-11.847-12.309-24.133,4.166-25.453   c17.546,7.854,36.029,11.985,53.445,4.168c3.507,17.185,7.169,34.042,10.992,50.559   C2005.042,1600.279,1982.493,1593.451,1964.218,1574.376z M2036.519,1541.967c14.626-18.757,6.48-45.029-11.046-59.859   c-0.442-2.449-0.85-4.886-1.258-7.352c20.245-16.42,26.546-50.533,0.997-78.893c30.54-8.727,42.26-60.174,10.659-86.697   c-9.5-7.974-21.725-12.572-34.433-12.572c-0.115,0-0.229,0-0.343,0c-11.961-127.691-12.222-227.082-11.993-255.463h765.096   c-64.486,369.599,83.78,713.494,284.611,1033.026c-147.344,5.324-577.455,20.864-723.546,26.143   C2184.796,2002.248,2091.026,1814.423,2036.519,1541.967z M2902.541,1795.19l19.274-33.217   c14.464,14.608,43.212,43.965,48.107,47.995c-6.473,24.993-13.638,50.077-21.624,75.583   C2931.986,1854.986,2916.738,1824.875,2902.541,1795.19z M2863.728,1708.807c15.861,12.272,30.929,26.203,45.951,41.017   c-1.508,2.121-10.229,17.432-15.809,26.966C2883.191,1753.887,2873.142,1731.23,2863.728,1708.807z M2974.673,1791.262   c-43.597-42.762-78.319-82.74-122.754-111.201c-20.041-50.17-36.855-99.21-50.582-147.346c0.259,0.146,0.44,0.376,0.718,0.494   c1.342,0.567,132.47,56.972,197.227,145.954C2991.565,1718.163,2983.624,1755.043,2974.673,1791.262z M2885.758,2096.425   c171.447-7.77,171.022-2.381,175.289-10.535c1.389-2.647,1.275-5.851-0.343-8.374c-37.314-58.837-70.979-115.856-101.278-171.392   c46.938-144.7,64.506-272.561,103.68-476.684c0.865-4.543-2.108-8.921-6.651-9.796c-4.492-0.873-8.921,2.108-9.786,6.642   c-14.57,75.988-31.736,172.146-43.083,231.024c-69.507-85.601-189.634-137.237-194.995-139.509   c-3.987-1.675-8.453,0.03-10.482,3.734c-7.916-28.694-14.63-57.044-20.33-85.144c76.713-117.249,206.37-258.644,393.409-282.621   c-3.766,20.063,10.081,43.881,28.104,55.329c12.401,7.882,26.519,11.959,39.932,15.187c123.76,29.773,220.647-7.924,245.301-37.908   c3.102-3.778,5.471-7.566,7.449-11.342c314.909,9.689,537.959,165.944,700.105,490.839   c-88.147-25.487-331.701,62.29-387.168,140.317c-8.755-36.295-18.284-69.696-28.385-102.673   c22.748-20.561,157.913-135.478,314.834-115.384c4.444,0.448,8.774-2.647,9.363-7.24c0.587-4.583-2.664-8.774-7.238-9.361   c-155.496-19.853-286.123,82.577-322.425,114.353c-14.23-45.773-26.978-85.627-39.422-130.971   c-2.207-7.805-13.455-8.177-15.925-0.204c0.12,1.673-71.52,336.501,86.052,766.215c-350.818,69.164-666.555-49.18-902.9-160.435   l-34.493-16.355C2871.991,2127.702,2879.099,2111.798,2885.758,2096.425z M2442.938,4057.613   c5.243,1.079,12.237,4.086,12.58,18.046c1.737,31.321,3.199,80.422-12.871,106.259c-0.848-2.088-0.418-4.322-3.723-6.997   c-2.895-18.399-0.599-13.656-1.492-112.831C2439.078,4057.139,2440.867,4057.238,2442.938,4057.613z M1633.611,3942.52h526.741   v615.226h-526.741V3942.52z M2420.7,4557.714h-243.535v-615.209H2420.7C2420.7,4157.808,2420.7,4324.396,2420.7,4557.714z    M2766.86,4478.289c-30.832,9.729-70.847,11.837-106.971,5.597c-68.52-11.966-94.602-49.489-222.457-42.76v-28.428   c99.717-5.786,134.257,1.503,186.985,13.649c45.73,10.548,85.296,19.285,132.167,11.282c21.9-3.807,45.512-11.939,64.302-24.675   C2820.215,4445.107,2802.187,4467.154,2766.86,4478.289z M2753.74,4421.144c-44.458,7.556-83.852-1.479-125.565-11.095   c-55.064-12.701-90.571-19.885-190.743-14.109V4232.63c4.581,6.612,10.758,12.512,19.132,18.25   c9.021,6.203,18.614-7.538,9.445-13.807c-11.499-7.878-17.394-15.217-20.228-25.856c49.966-7.019,91.06-28.437,94.759-33.185   c32.544,42.889,97.204,52.292,149.332,60.585c25.816,4.083,84.558,11.282,101.927-8.17c24.309,31.212,48.004,81.899,47.853,123.279   C2839.488,4395.188,2785.552,4415.612,2753.74,4421.144z M2775.194,4141.116c3.121,17.474,7.27,42.676,7.352,59.662   c0.115,19.647-1.193,21.249-19.934,24.403c-26.574,4.492-56.585-1.282-75.943-3.996c-46.846-7.36-95.292-14.975-127.218-46.657   c-21.011-20.832-14.558-39.263-5.637-64.769c9.687-27.717,5.486-24.878,18.578-38.649c5.426-5.791,14.468,0.013,20.4-3.15   c1.636,10.989,5.391,21.585,13.34,31.654c29.4,37.356,122.938,62.625,154.481,19.138   C2767.468,4126.296,2773.575,4132.147,2775.194,4141.116z M2750.015,4104.589c-19.691,39-106.634,15.37-130.73-15.336   c-15.234-19.279-10.904-42.641-8.625-70.75c48.971,18.045,103.978,24.27,156.344,23.004   C2764.958,4048.255,2756.556,4092.039,2750.015,4104.589z M3350.691,4208.75c0.907-1.106,3.279-1.208,4.705-1.208   c5.098,0,11.551,1.993,15.229,14.084c9.497,29.738,24.296,76.323,15.328,105.991c-1.345-1.763-1.518-4.065-5.448-5.787   c-9.814-21.784-19.629-48.278-24.128-66.121C3354.764,4249.352,3346.542,4213.794,3350.691,4208.75z M3257.199,4317.97   c-16.241-6.398-23.725-10.017-33.12-21.2c-6.226-7.705-5.409-15.368,2.222-21.52c8.779-6.954,20.049-3.468,30.439,1.161   c48.651,22.298,47.943,25.639,112.218,71.344c-3.898,1.271-7.795,2.477-11.749,3.55   C3326.163,4355.272,3285.759,4329.118,3257.199,4317.97z M3776.342,4529.03c-27.205,17.5-65.242,29.926-101.728,33.25   c-37.768,3.417-77.268-5.247-115.6-4.501c-145.212,2.475-272.978,130.454-401.486,47.89   c-29.271-18.794-41.689-33.794-46.618-60.402c139.007,128.199,310.258-15.935,478.658-27.536   c57.229-3.95,110.348,0.614,166.185-25.398c20.161-9.392,40.844-23.394,55.673-40.567   C3819.209,4482.917,3807.583,4508.936,3776.342,4529.03z M3814.118,4389.764c10.669,39.966-36.109,73.747-65.423,87.406   c-52.173,24.297-103.624,19.967-160.271,23.864c-142.039,9.813-269.601,103.116-384.982,75.282   c-47.98-11.596-108.68-52.016-115.583-101.81c-5.081-36.688,15.13-75.617,48.052-92.569c53.031-27.287,115.135,1.111,186.03-6.805   c-1.667,20.024,0.743,27.135,23.128,42.75c1.454,1.014,3.12,1.504,4.787,1.504c8.153,0,11.496-10.544,4.788-15.229   c-16.89-11.78-17.598-12.506-15.686-31.632c6.406-1.151,12.741-2.622,19.055-4.251c12.993-1.318,19.057-5.65,22.942-7.037   c7.591,14.349,18.498,23.027,36.447,29.312c0.914,0.326,1.845,0.473,2.761,0.473c9.341,0,11.65-13.146,2.76-16.258   c-13.09-4.593-20.701-10.089-26.221-19.537c45.916-19.701,80.359-51.392,82.748-56.931   c42.983,33.109,109.411,24.961,159.968,19.437c25.818-2.788,84.655-11.195,96.273-34.575   C3767.894,4307.291,3803.326,4349.316,3814.118,4389.764z M3696.279,4201.333c4.364,9.216,17.63,37.246,22.696,55.651   c5.244,18.953,4.395,20.833-12.86,28.773c-19.82,9.117-44.639,12.761-68.493,15.343c-47.262,5.16-99.795,12.219-140.861-11.137   c-25.718-14.623-24.312-34.098-22.368-61.059c2.15-29.214-1.253-25.333,7.844-42.154c2.401-4.469,12.182-6.614,19.408-7.675   c9.137,19.527,21.702,30.131,42.369,37.649c11.7,4.281,29.852,7.499,49.213,7.499c33.259,0,71.312-9.57,83.134-40.672   C3685.201,4189.198,3692.424,4193.162,3696.279,4201.333z M3662.425,4172.649c-7.643,37.426-77.406,41.259-112.675,28.356   c-17.829-6.477-27.243-14.907-34.583-32.763c-0.821-3.746-3.577-3.539-11.133-43.483c-0.479-2.55-1.019-5.061-1.511-7.606   c49.843,5.078,94.882,1.104,159.339-25.44C3663.329,4107.104,3664.861,4161.588,3662.425,4172.649z M3779.283,3961.768   c-1.227,33.528-21.045,64.27-51.698,80.218c-66.222,34.132-126.612,62.357-196.887,60.306   c-78.689-1.944-154.813-30.717-214.336-81.016c-15.097-12.704-24.508-31.331-26.502-52.474c-1.678-17.298-3.256-35.04-4.787-52.979   c100.704,39.382,211.14,38.822,305.868,5.327c4.347-1.536,6.634-6.316,5.098-10.669c-1.568-4.37-6.339-6.651-10.686-5.098   c-96.979,34.271-206.809,31.192-301.834-8.193c-35.144-430.317-30.16-1028.01-12.873-1459.494   c0.432-11.098-16.286-11.815-16.731-0.669c-2.915,72.769-5.475,150.304-7.558,230.933   c-68.15,233.896-70.921,282.354-312.216,1273.362c-8.856,32.669-36.126,60.274-69.458,70.307   c-68.331,20.472-279.824,36.149-357.157-94.309c-11.877-19.984-16.338-38.765-13.626-57.465   c2.242-15.948,4.738-32.531,7.367-49.446c65.002,39.958,139.125,63.258,215.417,67.133c0.147,0.008,0.294,0.008,0.425,0.008   c4.427,0,8.119-3.472,8.349-7.941c0.246-4.616-3.316-8.544-7.924-8.782c-75.793-3.845-149.415-27.511-213.422-68.252   c72.405-452.546,270.928-1215.624,383.606-1618.85l3.99,1.891c273.257,128.62,555.806,212.624,853.8,171.415l3.458,163.895   c-57.643-1.271-57.157-5.678-62.26-0.691c-5.299,5.297-4.446-29.951,48.265,589.744c0.37,4.27,3.975,7.845,8.873,7.623   c2.071-0.135,8.325-0.581,17.556-1.369L3779.283,3961.768z M4448.027,2248.365l65.961,532.255   c-157.444,250.822-690.493,303.589-763.07,309.642l-49.116-564.876c133.137,11.031,260.252-13.566,381.938-61.954   c5.901,13.009,20.019,23.002,36.801,23.002c19.181,0,33.879-10.737,46.672-23.879c6.217,16.601,8.824,31.232,13.525,49.16   c-3.962,22.254,9.099,42.901,27.271,54.797c8.162,7.385,17.675,11.275,28.182,11.275c1.447,0,2.992-0.43,4.472-0.572   c29.738,1.004,38.499-21.439,40.173-23.056c32.332,17.554,71.668-8.981,70.559-46.366c1.6-0.74,3.176-1.502,4.695-2.341   c16.591-2.697,33.544-21.709,33.931-43.923c1.205-5.413,1.546-11.029,1.268-16.716c15.408,1,30.528-13.308,30.269-35.158   c-0.488-37.17-16.032-54.49-55.209-102.046C4392.834,2289.253,4419.728,2269.753,4448.027,2248.365z M4373.57,2347.65   c13.296,18.224,28.659,37.013,30.859,57.738c-0.129,1.278-0.035,2.639-0.321,3.86c-2.21,8.923-12.282,16.258-20.302,15.436   c-9.722-6.358-12.879-12.681-23.193-25.99c-3.987-5.155-7.843-10.131-11.111-14.943v-0.008c-2.598-3.823-7.793-4.82-11.616-2.239   c-3.823,2.59-4.837,7.785-2.239,11.616c7.558,11.352,14.949,22.545,24.199,32.581c7.41,10.854,12.846,21.977,13.308,33.397   c-3.055,11.973-10.79,22.544-22.048,29.767c-7.716-0.418-16.713-7.686-35.097-34.66c-11.389-16.878-20.506-35.75-29.313-54.009   c-2.01-4.166-7.009-5.883-11.177-3.897c-4.149,2.01-5.897,7.009-3.888,11.168c11.337,23.489,36.409,74.697,61.337,91.752   c-0.825,1.364-1.412,2.9-1.355,4.574c1.089,28.549-28.483,40.689-48.691,25.301c-2.225-1.712-5.183-2.02-7.812-1.118   c-20.054-24.054-31.958-67.805-41.532-88.796c-1.944-4.216-6.96-6.047-11.095-4.126c-4.199,1.919-6.045,6.886-4.132,11.086   c9.732,21.148,22.751,70.395,47.339,96.434c-1.648,0.733-3.129,1.879-4.042,3.594c-3.627,6.821-10.26,12.01-17.744,13.88   c-7.345,1.84-18.664-2.592-25.541-6.83c-10.238-9.781-16.503-27.958-20.375-41.877c1.273-4.347,2.377-6.525,1.064-9.82   c-19.204-48.276-14.479-61.599-23.871-64.598c-3.761-1.211-6.359,0.243-9.087,2.49l-2.269-0.846   c-1.31,2.208-2.264,3.798-3.15,5.223c-9.31,7.402-19.529,14.481-30.754,16.637c-11.029,2.075-25.228-2.483-28.903-12.548   c-0.523-1.432-1.507-2.556-2.66-3.5c1.303-4.931,3.952-10.045,7.121-15.552c61.438-107.055,67.799-100.674,64-109.235   c-6.468-14.554-13.489-30.705-20.92-47.972c9.366-1.206,18.714-2.757,28.035-4.656c33.886,26.844,89.531,14.478,102.615-35.009   c9.321-4.765,18.366-9.977,27.123-15.642c15.036,61.946,11.971,60.097,16.74,63.358   C4325.41,2283.758,4342.304,2303.714,4373.57,2347.65z"></path>	<path d="M3343.583,859.179l-4.917-2.018c-13.111-5.322-26.968-11.014-25.211-25.686c0.619-5.505,5.756-9.207,9.82-15.374   c16.584-24.901,27.792-49.647,35.293-77.872c1.176-4.469-1.471-9.043-5.948-10.236c-4.509-1.153-9.036,1.494-10.228,5.94   c-7.01,26.404-17.516,49.565-33.054,72.913c-4.059,6.186-11.162,11.188-12.517,22.686c-1.355,11.658,3.611,23.594,12.974,31.15   c6.928,5.63,14.886,8.856,22.58,11.978c4.292,1.623,5.364,2.588,7.941,2.588c3.253,0,6.356-1.911,7.713-5.105   C3349.825,865.887,3347.832,860.976,3343.583,859.179z"></path>	<path d="M3363.501,966.838c28.2-7.28,46.076-20.262,61.697-44.795c2.483-3.897,1.323-9.068-2.565-11.551   c-3.84-2.443-9.036-1.332-11.553,2.565c-13.266,20.857-27.775,31.388-51.761,37.572c-9.457,2.451-7.701,16.47,2.091,16.47   C3362.095,967.099,3362.798,967.017,3363.501,966.838z"></path>	<path d="M3398.827,852.038c16.037,1.359,19.643-17.041,20.739-29.88c1.097-12.833,0.644-31.575-15.391-32.927   c-16.031-1.355-19.641,17.042-20.737,29.88C3382.347,831.951,3382.794,850.686,3398.827,852.038z"></path>	<path d="M3256.754,754.906c-16.037-1.36-19.718,17.019-20.854,29.869c-1.129,12.848-0.711,31.56,15.339,32.922   c16.044,1.365,19.729-17.014,20.854-29.864C3273.219,774.979,3272.786,756.267,3256.754,754.906z"></path>	<path d="M3661.657,871.458c0.865,0,1.732-0.131,2.598-0.417c7.221-2.361,16.224-5.302,20.75-15.742   c4.494-10.4,0.507-18.978-2.712-25.865c-1.944-4.191-6.912-5.965-11.111-4.052c-4.198,1.953-6.011,6.927-4.052,11.109   c2.925,6.291,3.905,8.963,2.516,12.157c-1.389,3.219-4.002,4.338-10.588,6.495c-4.395,1.437-6.796,6.159-5.359,10.547   C3654.859,869.219,3658.129,871.458,3661.657,871.458z"></path>	<path d="M3402.192,730.934c27.254,1.111,53.674,11.494,74.424,29.23c1.584,1.349,3.513,2.009,5.441,2.009   c7.735,0,11.322-9.703,5.441-14.72c-23.593-20.171-53.64-31.968-84.62-33.235C3392.156,713.179,3390.802,730.469,3402.192,730.934z   "></path>	<path d="M3531.776,546.619c31.925,2.227,62.045-24.132,67.179-58.792c5.135-34.65-16.641-64.629-48.566-66.855   c-31.925-2.227-61.857,24.145-66.994,58.8C3478.262,514.43,3499.853,544.395,3531.776,546.619z"></path>	<path d="M1962.764,3970.428h-131.481c-4.625,0-8.366,3.741-8.366,8.366v63.592c0,4.623,3.741,8.365,8.366,8.365h131.481   c4.623,0,8.366-3.743,8.366-8.365v-63.592C1971.129,3974.169,1967.387,3970.428,1962.764,3970.428z M1954.398,4034.02h-114.75   v-46.861h114.75V4034.02z"></path>	<path d="M2364.689,3966.687h-131.481c-4.625,0-8.366,3.741-8.366,8.365v71.074c0,4.625,3.741,8.366,8.366,8.366h131.481   c4.625,0,8.365-3.741,8.365-8.366v-71.074C2373.055,3970.428,2369.314,3966.687,2364.689,3966.687z M2356.323,4037.761h-114.75   v-54.343h114.75V4037.761z"></path>	<path d="M477.356,3906.003h172.081v655.804h-53.967c-4.623,0-8.366,3.741-8.366,8.366s3.743,8.366,8.366,8.366h420.211   c5.953,0,10.587-6.345,7.191-12.392h146.091c-0.007-865.716-0.003-435.686-0.005-560.491c0-4.626,3.741-8.366,8.366-8.366   s8.366,3.74,8.366,8.366c0,124.377,0.002-305.225-0.003,560.491h340.968v-660.144h34.542c4.623,0,8.366-3.741,8.366-8.366v-485.281   h204.214v-668.413h-204.279V2342.56c0-4.625-3.743-8.365-8.366-8.365H664.994c-4.623,0-8.366,3.741-8.366,8.365v401.387   c0,4.625,3.743,8.365,8.366,8.365h256.827v651.678H477.356c-4.625,0-8.366,3.741-8.366,8.366v485.281   C468.991,3902.261,472.732,3906.003,477.356,3906.003z M1024.047,4038.225c0,4.625-3.741,8.366-8.366,8.366H829.775   c-4.625,0-8.366-3.741-8.366-8.366v-91.415c0-4.626,3.741-8.366,8.366-8.366h185.906c4.625,0,8.366,3.74,8.366,8.366V4038.225z    M1429.766,4038.225c0,4.625-3.743,8.366-8.366,8.366h-95.34c-4.623,0-8.366-3.741-8.366-8.366v-91.415   c0-4.626,3.743-8.366,8.366-8.366h95.34c4.623,0,8.366,3.74,8.366,8.366V4038.225z M1552.831,3889.271h-370.72v-468.549h370.72   V3889.271z M1299.116,2906.421h-141.414c-4.623,0-8.366-3.741-8.366-8.366v-94.301c0-4.623,3.743-8.366,8.366-8.366h141.414   c4.625,0,8.366,3.743,8.366,8.366v94.301C1307.482,2902.68,1303.741,2906.421,1299.116,2906.421z M1526.638,3262.101v-477.42   c0-4.626,3.743-8.366,8.366-8.366c4.625,0,8.366,3.74,8.366,8.366v477.42c0,4.623-3.741,8.365-8.366,8.365   C1530.381,3270.467,1526.638,3266.724,1526.638,3262.101z M673.36,2350.926h879.406v384.655H673.36V2350.926z M485.722,3420.722   h679.658v468.549H485.722V3420.722z"></path>	<path d="M765.529,3712.768H590.814c-4.623,0-8.366,3.741-8.366,8.366v89.89c0,4.623,3.743,8.366,8.366,8.366h174.715   c4.625,0,8.366-3.743,8.366-8.366v-89.89C773.895,3716.509,770.154,3712.768,765.529,3712.768z M757.163,3802.658H599.18v-73.159   h157.983V3802.658z"></path>	<path d="M1307.025,3549.769h120.894c4.623,0,8.366-3.741,8.366-8.366v-81.107c0-4.624-3.743-8.365-8.366-8.365h-120.894   c-4.625,0-8.366,3.741-8.366,8.365v81.107C1298.659,3546.028,1302.4,3549.769,1307.025,3549.769z M1315.391,3468.662h104.162   v64.375h-104.162V3468.662z"></path>	<path d="M903.252,2589.567H758.765c-4.625,0-8.366,3.741-8.366,8.366v74.325c0,4.625,3.741,8.365,8.366,8.365h144.488   c4.623,0,8.366-3.741,8.366-8.365v-74.325C911.618,2593.309,907.875,2589.567,903.252,2589.567z M894.887,2663.893H767.13v-57.594   h127.757V2663.893z"></path>	<path d="M1464.583,2376.913h-127.168c-4.625,0-8.366,3.741-8.366,8.366v65.429c0,4.625,3.741,8.365,8.366,8.365h127.168   c4.623,0,8.366-3.741,8.366-8.365v-65.429C1472.949,2380.654,1469.206,2376.913,1464.583,2376.913z M1456.218,2442.342h-110.436   v-48.698h110.436V2442.342z"></path>	<rect x="1334.426" y="3955.176" width="78.609" height="74.683"></rect>	<rect x="838.141" y="3955.176" width="169.175" height="74.683"></rect>	<rect x="1166.067" y="2812.12" width="124.683" height="77.57"></rect>	<path d="M1240.802,2374.683c-4.625,0-8.366,3.741-8.366,8.365v339.675c0,4.623,3.741,8.366,8.366,8.366   c4.623,0,8.366-3.743,8.366-8.366v-339.675C1249.168,2378.424,1245.425,2374.683,1240.802,2374.683z"></path>	<path d="M3694.516,1097.421c-1.031,4.501,1.78,8.995,6.289,10.024c163.327,37.473,314.513,135.998,414.77,270.33   c1.633,2.205,4.149,3.366,6.699,3.366c6.769,0,10.867-7.778,6.699-13.367c-102.595-137.469-257.294-238.297-424.442-276.637   C3699.989,1090.042,3695.528,1092.935,3694.516,1097.421z"></path>	<path d="M4067.864,1191.387c5.864,9.185,20.106,0.41,14.118-8.986c-39.492-62.008-98.771-111.343-166.921-138.917   c-4.297-1.74-9.15,0.335-10.899,4.616c-1.732,4.281,0.343,9.159,4.625,10.89   C3973.734,1085.272,4030.236,1132.287,4067.864,1191.387z"></path>	<path d="M4301.04,4196.995c-12.662-12.654-40.455-19.256-84.995-20.203c-90.275-1.519-182.216,11.191-257.881,36.076   c-4.395,1.447-6.781,6.177-5.327,10.564c1.437,4.387,6.16,6.781,10.556,5.334c73.934-24.321,163.702-36.844,252.324-35.243   c51.713,1.094,68.249,10.057,73.494,15.301c2.761,2.771,2.435,4.625,2.287,5.417c-0.703,4.002-6.388,10.327-17.482,15.439   c-8.824,4.087-4.626,17.419,4.772,15.866c48.041-7.345,114.161-6.477,155.989,14.68c14.787,7.516,24.247,17.655,25.31,27.123   c2.986,26.563-61.62,39.237-87.301,44.01c-65.684,12.605-135.335,20.211-207.032,22.621c-10.904,0.366-10.598,16.723,0.277,16.723   c41.308,0,133.978-8.344,209.86-22.898c40.006-7.43,105.394-21.709,100.828-62.317c-1.715-15.311-14.247-29.951-34.377-40.187   c-38.288-19.348-94.391-22.863-137.705-19.509C4310.715,4215.667,4309.062,4205.016,4301.04,4196.995z"></path>	<path d="M1833.782,2643.462c3.693,0,7.074-2.46,8.088-6.202l112.871-420.813c1.191-4.461-1.456-9.043-5.916-10.245   c-4.461-1.176-9.035,1.454-10.26,5.915l-112.871,420.815C1824.272,2638.246,1828.288,2643.462,1833.782,2643.462z"></path>	<path d="M2170.287,2648.045c-0.099-4.625-3.661-8.145-8.53-8.203c-103.066,2.026-207.54,24.836-302.11,65.969   c-4.248,1.847-6.177,6.773-4.347,11.004c1.874,4.307,6.88,6.154,11.012,4.338c92.594-40.267,194.861-62.595,295.771-64.581   C2166.708,2656.484,2170.369,2652.661,2170.287,2648.045z"></path>	<path d="M1877.212,2806.094c-11.255-0.502-12.015,15.947-1.144,16.698c86.091,5.849,163.391,55.332,231.608,98.982   c1.389,0.898,2.956,1.323,4.509,1.323c2.746,0,5.458-1.364,7.042-3.855c2.5-3.89,1.357-9.068-2.533-11.553   C2046.795,2862.945,1967.567,2812.237,1877.212,2806.094z"></path>	<path d="M2694.446,4561.798c11.171,20.402,38.239,29.313,61.271,26.813c15.065-1.603,29.133-6.651,42.727-11.528   c29.976-10.767,43.598-15.075,105.273-11.862l57.644,2.973c11.264,0.448,11.754-16.156,0.85-16.715   c-74.314-3.833-108.22-7.445-142.624,1.227c-22.922,5.771-43.7,16.927-65.635,19.271c-19.606,2.091-42.661-6.405-47.17-24.198   c-1.385-5.439-7.606-8.004-12.418-5.113c-46.714,28.079-107.79,29.354-155.646,3.211c-4.004-2.215-9.134-0.711-11.341,3.333   c-2.222,4.052-0.734,9.142,3.335,11.356C2580.775,4587.916,2644.023,4588.137,2694.446,4561.798z"></path></g>
</svg>
