<?xml version="1.0" encoding="UTF-8"?>
<svg xmlns="http://www.w3.org/2000/svg" xmlns:xlink="http://www.w3.org/1999/xlink" id="Layer_1" x="0px" y="0px" viewBox="0 0 5000 5000" style="enable-background:new 0 0 5000 5000;" xml:space="preserve">
  <g id="_x32_3_1_">	<path d="M1119.282,3475.024c15.358,22.384,64.427,14.972,127.121-14.276c3.176,6.51,6.549,12.921,10.013,19.287   c-26.505,113.792-28.253,153.246-104.32,372.452c-1.49,4.322,0.753,9.045,5.042,10.625c7.703,2.821,15.426,5.3,23.141,7.933   c-3.174,3.754,6.035-41.584-121.058,736.226c-0.753,4.568,2.358,8.874,6.925,9.618c4.55,0.731,8.861-2.34,9.61-6.933   c125.661-774.045,119.167-730.229,119.042-733.933c190.403,62.009,377.384,64.943,571.057,20.635   c40.745,22.613,47.199,28.612,62,23.797c28.337,14.656,55.789,28.887,81.752,42.754c2.277,7.53,88.921,118.661,94.037,124.838   c-1.086,3.122-0.287-18.224-0.551,350.084c0,4.314,3.274,7.924,7.564,8.341l341.903,33.455   c3.994,37.118,8.861,78.536,15.221,129.727c0.524,4.248,4.142,7.351,8.3,7.351c5.069,0,8.955-4.425,8.333-9.414   c-6.147-49.518-10.895-89.863-14.816-125.996l427.038,41.786c0.221,0.018,0.409,0.127,0.63,0.127c0.016,0,0.033,0,0.049,0   c0.09-0.001,0.164-0.049,0.254-0.052l1201.845-30.841c4.551-0.123,8.169-3.839,8.169-8.382V3390.365   c0-4.502-3.552-8.202-8.055-8.374l-196.423-7.513l41.943-265.282c0.786-4.992-3.014-9.554-8.071-9.692l-210.145-5.181   l26.196-478.634l-69.163-1.715c3.154-3.69-0.886,41.147,36.616-627.649c0.275-4.798-3.526-8.781-8.251-8.849l-189.081-2.476   l-16.22-249.494h-276.563c0.017-3.255-53.77-394.507-52.941-438.776c0.747,0.099,1.531,0.337,2.265,0.39   c0,0,48.279-26.318,67.057-36.378c40.791-22.203,89.646-63.001,134.503-88.95c1.681-0.099,7.493-0.439,5.812-0.341L3260.582,951.9   l-247.105,13.747c12.887,108.146,15.085,103.386,11.063,108.296c-4.929,5.474,4.128,1.368-240.233,14.753   c-5.01,0-8.257-3.375-8.716-7.208c-0.214-1.708-13.565-108.519-12.741-101.927l-326.033,18.105l-1.453-3.074   c-1.965-4.191-6.974-5.951-11.165-4.003c-4.175,1.981-5.975,6.974-3.995,11.157l0.941,1.994l-337.982,285.86   c-14.588-31.03,53.292,113.358-144.997-308.425l306.691-433.351l126.643,481.417c1.178,4.506,5.825,7.146,10.232,5.967   c4.486-1.179,7.154-5.763,5.975-10.24L2259.2,536.469c151.62,3.1,632.162,42.415,784.406,54.833   c14.976,118.516,41.233,326.433,45.367,359.398c0.557,4.609,4.764,7.784,9.364,7.277c4.584-0.573,7.842-4.764,7.269-9.356   c-5.898-47.02-46.776-370.577-53.045-420.212l76.587-2.719L3106.851,350l-902.587,16.932l-413.908,518.516l89.688,170.496   l50.066-52.451l138.831,295.244c0.332,0.707,0.98,1.087,1.465,1.65l-91.62,77.491l83.821,171.834l0.113-0.085   c70.708-15.992,148.861-17.43,219.634-33.298c0.409,0.376,0.735,0.825,1.232,1.121c0.17,0.102,0.368,0.062,0.542,0.15   c-1.938,5.109-1.565,29.039,118.608,299.044c0.197,0.437,0.626,0.636,0.88,1.022l-295.075,189.982l64.732,254.385l-82.673,53.06   c-3.438,2.21-4.781,6.581-3.176,10.339l77.928,182.336c-90.918-36.173-210.467-52.422-302.737-77.066   c-1.569-15.823-0.739-28.751-2.622-43.64c-0.213-1.452-2.836-21.394-5.335-41.661c61.832-60.374,98.354-152.695,108.851-242.341   c8.939-76.481,14.141-166.656-8.546-244.2c30.246-48.124,54.901-99.761,73.168-153.586   c27.533-81.144,16.298-133.714-98.289-189.908c-122.512-60.075-300.51-75.318-407.72,0.451   c-50.827,35.919-87.19,96.949-80.308,158.804c-30.526-19.344-79.886-13.668-111.925-1.883   c-51.375,18.902-134.924,115.75-64.775,161.499c12.121,7.905,26.757,14.826,31.621,28.458   c11.886,33.313-39.032,47.391-21.688,143.065c17.266,95.247,80.847,178.107,174.173,215.316   c9.197,3.665,36.565,19.214,50.454,17.416c23.956,32.661,51.011,62.286,83.43,88.495l2.39,70.747   c0.279,13.817-0.971,26.901-0.573,42.71c-91.01,13.68-364.393,57.667-442.354,82.417   c-111.415,35.37-176.641,84.573-186.682,213.114c-17.333,221.976,41.203,479.59,160.519,707.925   C1113.382,3456.648,1114.012,3467.346,1119.282,3475.024z M1827.66,3829.158c-34.442-44.56-3.18-111.808,55.646-111.808   c65.375,0,94.97,84.247,41.943,124.684C1914.788,3850.031,1851.333,3859.787,1827.66,3829.158z M1880.437,3700.812   c-55.755,1.838-94.182,53.605-81.21,106.738c-39.744,43.087-45.236,41.01-49.572,53.241   c-204.433-108.04-427.376-242.681-504.295-444.761c14.651-65.724,201.761-181.442,228.937-165.91   c99.632,128.948,282.794,279.682,434.463,403.361C1902.381,3660.144,1901.806,3666.485,1880.437,3700.812z M1170.645,3850.171   c68.139-197.141,73.565-240.802,98.073-348.781c101.404,166.595,299.438,282.81,481.047,378.417   c0.368,1.015,0.958,1.943,1.445,2.915C1547.423,3927.505,1357.111,3916.904,1170.645,3850.171z M1993.944,4048.395   c-60.329-76.458-65.707-89.216-71.027-93.807c-1.204-5.075,1.575-2.96-79.254-44.822c13.525-11.32,26.346-23.562,38.432-36.592   c58.391,0.531,103.004-56.961,81.589-115.706c7.406-13.976,14.157-28.155,20.354-42.48c6.534,5.372,12.764,10.54,19.058,15.75   v1.116c0,5.214,4.922,9.772,10.875,7.88c26.835,22.32,27.28,23.907,31.507,24.095c1.685-0.182,1.487,0.142,3.164-0.444   c51.308-18.14,104.466-31.564,158.949-44.849c44.317-10.784,57.813,12.887,53.158,36.443   c-2.996,14.685-14.145,28.674-31.613,38.997c-15.176,8.794-14.405,8.391-31.548,12.549c-4.502,1.089-7.252,5.624-6.172,10.117   c1.106,4.551,5.695,7.255,10.134,6.172c2.046-0.496,3.667-0.906,5.323-1.323c2.214,25.326,163.696,70.135,124.862,136.64   c-5.844,10.003-16.109,17.378-27.455,19.719c-3.984,0.827-6.551,4.377-6.51,8.292c-22.162-44.451-86.207-82.733-112.33-105.333   c-3.487-3.021-8.792-2.66-11.82,0.851c-3.029,3.503-2.652,8.792,0.851,11.82c29.805,25.841,109.244,72.607,114.108,118.725   c3.739,35.469-40.704,64.697-74.604,43.466c-0.778-0.489-1.629-0.726-2.478-0.933c-10.753-38.129-68.992-91.902-98.156-118.201   c-3.438-3.102-8.726-2.824-11.836,0.606c-3.111,3.438-2.833,8.742,0.605,11.837c24.368,21.964,108.094,97.702,92.711,127.115   c-7.351,14.079-30.451,21.307-45.529,18c-18.303-3.946-33.299-17.902-46.527-33.987c-9.745-16.159-22.043-30.616-33.643-44.399   c-0.016-0.008-0.016-0.008-0.016-0.016c-2.963-3.561-8.235-4.068-11.804-1.097c-3.553,2.955-4.06,8.235-1.097,11.804   c9.688,11.689,20.917,28.693,32.563,43.106c9.643,16.109,15.307,32.391,6.106,41.125c-6.417,6.107-17.714,7.899-28.797,4.494   C2034.242,4105.388,2014.634,4074.611,1993.944,4048.395z M2019.859,4105.692c50.142,47.992,98.533,26.458,96.493-8.83   c8.775,6.401,18.467,11.263,29.403,13.621c25.483,5.539,62.587-9.438,67.188-36.472c50.019,21.607,110.124-25.751,87.554-81.686   c1.971,1.727,4.5,2.483,7.187,1.946c40.613-8.398,69.928-62.041,21.021-107.617c-34.309-31.994-69.926-42.349-105.558-70.389   c25.418-11.665,48.476-30.793,54.038-57.979c6.254-31.726-12.535-70.88-73.556-56.039c-53.321,13.001-105.362,26.226-155.99,43.825   c-8.914-7.523-18.182-15.274-27.778-23.236v-210.145l275.923-57.375l-0.458,189.139c0,5.06,4.406,8.989,9.496,8.325l183.817-24.582   c4.093-0.548,7.171-3.986,7.269-8.112c0.422-18.251,3.696-166.324,0.761-206.542l284.579-59.174l7.58,1151.461l-768.966-75.306   V4105.692z M2781.471,3092.332l7.167,243.483c-0.274,0.033-0.557,0.009-0.831,0.067   c-163.175,33.93-501.646,104.311-664.701,138.216l-40.478-234.447L2781.471,3092.332z M2479.305,3612.532l-167.2,22.363   l0.45-183.065l167.655-34.863C2482.051,3447.019,2480.831,3543.777,2479.305,3612.532z M3990.822,4476.063l-1185.226,30.478   L2798,3352.804l420.942,16.103l13.887,153.992c0.376,4.199,3.814,7.465,8.038,7.621c112.947,4.238,336.907,12.549,334.532,12.549   c4.935,0,8.782-4.24,8.349-9.111l-13.199-151.6l420.273,16.078V4476.063z M3553.668,3381.713l12.563,144.24l-317.375-11.91   l-13.021-144.488L3553.668,3381.713z M3786.229,3373.832l-980.799-37.518l-7.23-245.644l1028.793,25.36L3786.229,3373.832z    M3062.489,2725.729c-1.082-5.651,3.957-10.408,8.398-9.913c110.196,2.202,319.945,6.213,327.132,6.123   c4.731,0.246,8.595,3.503,8.726,8.096l4.911,148.152c0.137,4.669-3.523,8.558-8.202,8.661l-302.641,6.63c-0.065,0-0.115,0-0.18,0   c-4.027,0-7.498-2.873-8.235-6.852L3062.489,2725.729z M3571.052,2613.657l-815.766-20.225   c-163.052-937.776-83.741-481.63-106.375-611.804l954.351,12.499C3566.47,2652.036,3568.028,2609.755,3571.052,2613.657z    M2400.117,2145.194c2.832,9.798,14.21,79.655,21.414,125.863l-96.542,67.262l-30.633-134.08l106.555-68.386   c-1.259,1.574-2.012,3.565-1.875,5.732C2399.118,2142.893,2399.511,2144.121,2400.117,2145.194z M3217.263,1822.391   c0.295,4.617-3.209,8.603-7.825,8.906c-366.428,23.817-256.737,18-277.134,18c-10.709,0-11.26-16.043-0.524-16.748l276.577-17.984   C3212.63,1814.369,3216.969,1817.757,3217.263,1822.391z M2994.928,1725.507c0.101-11.393-40.226-251.631-107.957-492.989   c63.652,6.887,121.778,25.083,173.952,54.667c0.524,53.883,43.337,369.452,52.769,438.322H2994.928z M2300.12,1522.46   c0.798-3.59-0.872-7.354-4.23-9.171c25.239-41.868,55.91-80.077,90.744-113.938c51.395,136.415,76.937,191.231,128.769,329.061   c1.261,3.365,4.453,5.435,7.842,5.435c5.854,0,9.911-5.856,7.842-11.329c-26.227-69.791-46.151-119.339-65.42-167.258   c-87.603-217.966-58.577-154.421-66.034-168.294c58.605-53.535,128.161-94.824,203.619-120.403   c-3.341,10.265,10.7,7.022,84.967,273.096c15.176,54.336,30.876,110.531,49.916,170.066c1.146,3.561,4.437,5.828,7.989,5.828   c0.851,0,1.702-0.131,2.554-0.401c4.404-1.408,6.843-6.123,5.435-10.535c-49.88-155.865-75.723-285.415-135.194-438.539   c-0.635-1.641-1.809-2.833-3.16-3.753c73.188-22.904,168.257-37.804,253.518-31.484c0.039,0.189-0.012,0.373,0.041,0.563   c45.657,161.872,82.289,328.099,108.874,494.105h-422.917l-0.319-1.638c-0.9-4.559-5.435-7.506-9.823-6.63   c-4.551,0.876-7.514,5.28-6.646,9.823l0.651,3.352l-121.582,78.281C2372.427,1707.278,2301.557,1541.937,2300.12,1522.46z    M2319.23,1993.127l103.401-51.791c4.109-2.038,9.168-0.401,11.247,3.749c2.063,4.134,0.393,9.168-3.749,11.247l-103.401,51.791   c-4.111,2.056-9.159,0.412-11.247-3.741C2313.418,2000.241,2315.088,1995.206,2319.23,1993.127z M2279.362,2213.86l32.055,140.305   c1.343,5.868,8.178,8.367,12.966,5.01l111.03-77.354c2.62-1.825,3.978-4.993,3.487-8.161   c-22.003-141.751-22.183-141.579-32.039-140.982c-0.626,0.041-1.162,0.303-1.74,0.472l227.721-146.15   c12.25,70.573-41.627-239.824,106.058,611.023l-411.557,246.117l-221.715-518.779L2279.362,2213.86z M1492.588,2198.229   c-17.798-28.695-28.089-60.708-40.667-93.472c-1.644-4.278-6.377-6.371-10.592-4.903c-41.861,14.603-92.94-1.432-118.954-37.278   c-17.272-23.828-26.26-72.55-11.526-104.367c16.619-35.852,59.865-41.975,103.886,17.953   c24.643,33.551,53.455,100.203,78.437,101.138c11.566,0.433,23.91-10.711,21.516-35.136c-1.94-19.798-10.498-38.271-15.471-57.533   c-4.975-19.264-5.812-41.414,6.103-57.348c16.576-22.174,53.186-26.373,62.444-52.465c9.328-26.283-16.953-53.391-13.564-81.074   c1.727-14.102,11.188-26.326,22.713-34.629c54.924-39.577,135.958-38.7,197.788-19.601c57.754,17.839,110.838,50.327,153.35,93.293   c34.253,80.318,28.769,183.026,18.79,268.307c-10.396,88.929-44.71,168.854-96.591,225.057   C1741.22,2444.302,1577.117,2334.688,1492.588,2198.229z M1839.447,2358.853c4.621,36.746,6.781,76.093,7.011,78.822   c0.302,6.686,5.04,17.063-0.79,30.902c-26.892,63.322-138.402,73.908-191.61,49.482c-19.875-9.217-36.328-24.615-45.103-42.189   c-11.152-22.72-6.191-52.048-6.696-78.574l-1.926-57.117C1676.875,2395.347,1765.413,2417.401,1839.447,2358.853z    M972.585,2737.288c9.53-121.765,70.597-165.277,175.059-198.445c77.825-24.702,362.468-70.165,438.609-81.635   c5.003,35.14,29.83,61.717,60.783,76.078c82.469,37.878,226.708-5.258,217.907-84.666c97.935,25.392,221.837,42.27,309.875,81.297   c154.511,360.777,135.528,318.136,138.277,322.746l-38.25,22.874l64.413,292.885l-144.406,30.443l-95.623-238.802   c-1.719-4.298-6.598-6.417-10.887-4.666c-4.306,1.727-6.385,6.606-4.666,10.903l94.532,236.074l-106.942,22.544   c-4.404,0.933-7.285,5.182-6.532,9.626l41.935,242.972l-96.894,20.148c-3.896,0.811-6.68,4.24-6.68,8.21v203.113   c-4.054-3.342-8.067-6.659-12.213-10.062c4.531-13.101-1.426-27.622-13.94-33.96c-11.401-5.7-23.638-11.735-35.207-17.602   c-5.509-2.689-11.39-3.371-16.957-2.451c-143.474-116.966-316.853-259.051-419.688-383.069   c23.391-28.131,70.906-93.401,44.403-118.65c-89.48-86.584-129.184-148.789-207.163-248.665c-2.849-3.667-8.169-4.281-11.771-1.449   c-3.651,2.849-4.306,8.112-1.457,11.763c71.078,91.027,110.705,151.231,186.592,228.31   c-106.966,3.809-338.117,174.985-391.574,289.104C1011.037,3200.124,955.861,2951.723,972.585,2737.288z"></path>	<path d="M1921.91,2602.56c3.945-2.415,5.19-7.58,2.783-11.526c-2.439-3.97-7.596-5.157-11.525-2.783   c-100.471,61.442-236.238,54.779-330.21-16.101c-3.667-2.791-8.922-2.071-11.738,1.637c-2.783,3.7-2.046,8.955,1.653,11.738   C1672.317,2660.577,1815.87,2667.404,1921.91,2602.56z"></path>	<path d="M1856.555,4176.722c1.195-4.478-1.474-9.07-5.943-10.265c-4.469-1.204-9.053,1.473-10.265,5.926   c-10.241,38.328-41.689,68.905-76.225,79.884c-4.42,1.408-6.859,6.115-5.452,10.527c1.422,4.493,6.241,6.838,10.527,5.452   c2.282-0.726,4.445-1.768,6.677-2.626c3.293,21.256,8.339,100.525-17.564,375.197c-0.426,4.608,2.947,8.693,7.564,9.127   c4.233,0.529,8.678-2.711,9.135-7.555c22.357-237.162,23.54-350.946,16.482-384.024   C1822.779,4241.156,1847.334,4211.173,1856.555,4176.722z"></path>	<path d="M1810.061,2097.839c-7.875,6.696-18.483,10.388-28.748,13.965c-4.371,1.522-6.696,6.303-5.173,10.674   c1.57,4.475,6.455,6.653,10.674,5.157c11.182-3.888,23.853-8.3,34.118-17.026c26.098-22.212,16.75-44.628-1.703-65.068   c-21.561-24.213-35.886-55.237-40.339-87.358c-0.639-4.6-5.223-7.85-9.446-7.146c-4.584,0.63-7.793,4.87-7.154,9.454   c4.911,35.37,20.677,69.529,44.432,96.198C1818.459,2069.719,1828.547,2082.094,1810.061,2097.839z"></path>	<path d="M1691.798,1953.932c-12.632-0.866-24.176,17.438-25.785,40.884c-1.609,23.445,7.33,43.153,19.961,44.019   c12.635,0.869,24.181-17.437,25.789-40.881C1713.371,1974.508,1704.433,1954.8,1691.798,1953.932z"></path>	<path d="M1895.167,1967.885c-12.633-0.867-24.181,17.439-25.787,40.883c-1.611,23.445,7.328,43.154,19.963,44.021   c12.63,0.866,24.176-17.437,25.787-40.882C1916.736,1988.461,1907.802,1968.751,1895.167,1967.885z"></path>	<path d="M1384.668,2043.634c-11.665-1.813-15.569-16.85-6.319-24.123c3.635-2.865,4.257-8.137,1.392-11.771   c-8.891-11.266-27.729,9.626-22.363,30.156c5.292,20.235,32.038,29.939,34.298,15.307   C1392.379,2048.627,1389.252,2044.338,1384.668,2043.634z"></path>	<path d="M1854.247,1925.793c20.693-17.706,35.886-17.394,64.978,1.293c9.252,5.971,18.416-8.107,9.07-14.096   c-29.894-19.204-54.5-25.916-84.951,0.049c-3.52,3.012-3.929,8.3-0.917,11.82   C1845.439,1928.396,1850.743,1928.781,1854.247,1925.793z"></path>	<path d="M1644.759,1920.349c24.77-16.126,40.978-16.928,69.496-3.446c4.158,2.005,9.168,0.221,11.165-3.986   c1.981-4.183,0.197-9.176-3.995-11.157c-33.692-15.97-56.17-14.792-85.802,4.543   C1626.276,1912.397,1635.557,1926.342,1644.759,1920.349z"></path>	<path d="M1715.942,2190.829c-1.326-4.428-5.976-6.958-10.461-5.591c-4.42,1.343-6.925,6.025-5.583,10.453   c10.491,34.641,61.117,35.853,56.154,17.542c-1.212-4.461-5.779-7.13-10.281-5.894   C1733.721,2210.581,1719.543,2202.722,1715.942,2190.829z"></path>	<path d="M3008.615,1060.699c-2.851-22.464-10.228-79.966-11.736-93.713v-0.502l-217.432,12.07l11.736,93.042L3008.615,1060.699z"></path>	<path d="M3394.614,2870.271l-4.355-131.658c-44.383-0.589-245.406-4.56-309.418-5.828l26.734,143.773L3394.614,2870.271z"></path>	<path d="M3281.288,2219.552c0.016,0,0.033,0,0.033,0l240.544-1.129c4.678-0.017,8.417-3.853,8.349-8.513l-1.899-121.991   c-0.065-4.535-3.733-8.194-8.268-8.251l-246.863-3.291c-6.349,1.009-8.753,4.626-8.48,8.922l8.219,126.411   C3273.217,2216.122,3276.867,2219.552,3281.288,2219.552z M3511.682,2096.325l1.637,105.374l-224.173,1.048l-7.122-109.483   L3511.682,2096.325z"></path>	<path d="M2900.163,602.309c-0.884-4.077-4.469-6.966-8.759-6.622c-357.216,24.787-342.507,19.375-346.827,26.227   c-4.307,6.754-0.344,5.14,44.595,123.112c1.423,3.594,5.056,5.634,8.513,5.288c335.72-29.286,320.426-24.344,324.693-30.131   C2926.665,714.435,2923.392,716.154,2900.163,602.309z M2602.499,733.091l-38.865-99.071l321.648-21.127l20.186,94.741   L2602.499,733.091z"></path>	<path d="M2191.431,791.251c-41.027,57.594-80.989,104.163-125.732,146.564c-3.356,3.184-3.503,8.489-0.328,11.845   c3.208,3.382,8.514,3.49,11.853,0.319c45.561-43.155,86.195-90.509,127.86-149.004c2.685-3.766,1.801-9.004-1.965-11.689   C2199.371,786.618,2194.132,787.469,2191.431,791.251z"></path>	<path d="M3488.811,1661.592c1.836,4.281,6.803,6.191,11.018,4.371c172.816-74.621,354.603-128.048,540.32-158.81   c11.001-1.814,8.112-18.486-2.75-16.535c-187.042,30.983-370.156,84.795-544.216,159.956   C3488.926,1652.408,3486.977,1657.344,3488.811,1661.592z"></path>	<path d="M3490.906,1519.129c115.909-133.746,222.323-277.552,316.278-427.431c2.456-3.921,1.277-9.094-2.652-11.558   c-3.929-2.431-9.086-1.269-11.558,2.652c-93.497,149.151-199.387,292.261-314.739,425.352c-3.029,3.504-2.652,8.792,0.851,11.828   C3482.631,1523.041,3487.917,1522.577,3490.906,1519.129z"></path>	<path d="M3609.435,1809.663c-0.426,4.609,2.947,8.693,7.563,9.127c131.216,12.377,257.668,58.806,365.703,134.286   c1.457,1.023,3.127,1.514,4.797,1.514c8.177,0,11.516-10.558,4.797-15.25c-110.392-77.142-239.627-124.594-373.725-137.233   C3613.97,1801.608,3609.877,1805.054,3609.435,1809.663z"></path></g>
</svg>
