<?xml version="1.0" encoding="UTF-8"?>
<svg xmlns="http://www.w3.org/2000/svg" xmlns:xlink="http://www.w3.org/1999/xlink" id="Layer_1" x="0px" y="0px" viewBox="0 0 5000 5000" style="enable-background:new 0 0 5000 5000;" xml:space="preserve">
  <g id="_x34_4_1_">	<path d="M4262.69,2891.35v-139.375c0-4.575-3.692-8.268-8.268-8.268h-210.223c-4.575,0-8.268,3.693-8.268,8.268v139.375   c0,4.575,3.693,8.268,8.268,8.268h210.223C4258.998,2899.618,4262.69,2895.925,4262.69,2891.35z M4246.155,2883.082h-193.688   v-122.84h193.688V2883.082z"></path>	<path d="M2368.313,1516.55c86.57,52.948,203.892,47.514,285.303-13.921c3.644-2.745,4.379-7.941,1.617-11.585   c-2.745-3.66-7.957-4.346-11.585-1.618c-75.896,57.253-185.583,62.613-266.708,13.006c-3.872-2.369-8.97-1.176-11.372,2.745   C2363.182,1509.067,2364.407,1514.165,2368.313,1516.55z"></path>	<path d="M2459.062,1001.564c-4.673,11.928-1.177,26.813,8.905,37.908c8.268,9.134,19.182,14.591,28.806,19.395   c4.025,2.013,9.029,0.422,11.094-3.709c2.042-4.085,0.392-9.052-3.709-11.094c-8.725-4.363-17.745-8.872-23.938-15.702   c-4.836-5.327-8.48-13.807-5.751-20.767c1.846-4.771,6.503-8.742,11.438-12.957c1.444-1.675,38.576-29.339,53.267-83.119   c2.885-10.527-13.061-15.055-15.947-4.379c-7.696,28.104-24.068,54.116-46.094,73.233   C2469.787,986.649,2462.594,992.483,2459.062,1001.564z"></path>	<path d="M2867.368,1045.599c0.065,0,0.131,0,0.196,0c24.467-0.58,36.565-30.309,19.427-47.809   c-3.186-3.284-8.448-3.317-11.699-0.131c-3.268,3.203-3.317,8.431-0.131,11.699c7.009,7.157,2.075,19.443-7.99,19.705   C2856.354,1029.296,2856.558,1045.599,2867.368,1045.599z"></path>	<path d="M2458.081,871.845c9.073,6.048,18.321-7.625,9.248-13.725c-22.205-14.951-50.816-19.444-76.567-11.993   c-10.488,3.013-5.934,18.96,4.608,15.882C2416.465,855.93,2439.912,859.607,2458.081,871.845z"></path>	<path d="M2584.189,885.505c23.136-7.532,50.93-0.49,67.613,17.222c1.634,1.732,3.823,2.598,6.029,2.598   c7.218,0,10.995-8.66,6.029-13.938c-21.258-22.597-55.374-31.274-84.834-21.601   C2568.709,873.173,2573.668,888.856,2584.189,885.505z"></path>	<path d="M2547.327,1121.887c2.435-3.856,1.291-8.97-2.565-11.421c-3.823-2.435-8.938-1.307-11.421,2.565   c-17.506,27.588-54.831,35.34-81.877,16.519c-3.758-2.598-8.905-1.699-11.519,2.075c-2.598,3.758-1.683,8.905,2.075,11.519   C2476.682,1167.218,2524.626,1157.655,2547.327,1121.887z"></path>	<path d="M2587.419,1015.009c12.098,0.737,22.772-14.436,23.965-34.064c1.182-19.436-7.579-35.787-19.678-36.523   c-12.104-0.735-22.777,14.44-23.959,33.876C2566.558,997.922,2575.318,1014.274,2587.419,1015.009z"></path>	<path d="M2422.688,910.547c-12.1-0.733-22.775,14.442-23.955,33.876c-1.188,19.624,7.571,35.977,19.672,36.715   c12.098,0.735,22.773-14.442,23.963-34.064C2443.547,927.638,2434.791,911.282,2422.688,910.547z"></path>	<path d="M2855.146,3078.878h-210.24c-4.575,0-8.268,3.693-8.268,8.268v125.928c0,4.575,3.693,8.268,8.268,8.268h210.24   c4.575,0,8.268-3.693,8.268-8.268v-125.928C2863.414,3082.57,2859.721,3078.878,2855.146,3078.878z M2846.878,3204.806h-193.704   v-109.393h193.704V3204.806z"></path>	<rect x="3826.941" y="4086.631" width="314.052" height="143.889"></rect>	<rect x="3793.144" y="3594.887" width="136.027" height="70.276"></rect>	<path d="M3321.081,3569.796h-126.239c-4.575,0-8.268,3.693-8.268,8.268v82.481c0,4.575,3.693,8.268,8.268,8.268h126.239   c4.575,0,8.268-3.693,8.268-8.268v-82.481C3329.349,3573.489,3325.656,3569.796,3321.081,3569.796z M3312.813,3652.277h-109.703   v-65.946h109.703V3652.277z"></path>	<path d="M2750.034,4048.95h-218.426c-4.575,0-8.268,3.693-8.268,8.268v138.771c0,4.575,3.693,8.268,8.268,8.268h218.426   c4.575,0,8.268-3.693,8.268-8.268v-138.771C2758.302,4052.643,2754.609,4048.95,2750.034,4048.95z M2741.767,4187.721h-201.89   v-122.235h201.89V4187.721z"></path>	<path d="M3041.154,1396.324c-1.699,4.232,0.359,9.052,4.608,10.751c140.078,56.126,257.722,159.62,331.266,291.414   c1.52,2.712,4.33,4.232,7.222,4.232c6.309,0,10.294-6.792,7.222-12.304c-75.39-135.078-195.975-241.17-339.566-298.701   C3047.755,1390.001,3042.837,1392.093,3041.154,1396.324z"></path>	<path d="M3407.811,1511.485c2.843-3.578,2.222-8.791-1.356-11.617l-165.126-130.552c-3.594-2.859-8.791-2.239-11.617,1.356   c-2.843,3.578-2.222,8.791,1.356,11.617l165.126,130.552C3399.719,1515.646,3404.945,1515.096,3407.811,1511.485z"></path>	<path d="M1986.035,4545.865c10.075-4.084,4.055-19.441-6.209-15.359c-191.596,77.351-408.306,95.667-610.196,51.437   c-4.461-0.964-8.872,1.879-9.853,6.323c-0.964,4.46,1.863,8.872,6.323,9.853C1566.083,4641.87,1786.382,4626.477,1986.035,4545.865   z"></path>	<path d="M4641.732,4293.895h-44.231v-1632.13c0-4.575-3.693-8.268-8.268-8.268c-258.902,0-758.424,0-1017.436,0   c-5.565-20.14-19.133-37.265-32.323-55.309c-6.245-8.762-47.776-65.758-52.606-69.8c-4.694-22.271-9.691-44.17-15.045-65.817   c6.573-10.096,2.569-17.508-4.779-51.026c-1.648-7.198-6.69-12.4-12.821-14.755c-36.005-124.995-85.948-245.864-159.235-387.686   c25.304-13.888,89.208-52.49,71.254-74.751c1.068-2.239,1.262-4.814,0.164-7.095c-138.329-287.48-359.6-467.052-676.273-548.999   c-13.112-25.645-42.926-29.589-71.292-28.292c6.17-65.66,6.599-63.559,6.241-69.737c73.511-36.395,143.412-108.376,165.62-151.938   c3.905-7.679,13.055-25.686,16.65-27.94c2.745-0.865,14.793,10.86,23.611,14.362c22.025,8.448,53.168,5.425,75.668-7.418   c22.232-12.751,43.09-36.508,55.411-74.05c69.398-36.339,104.102-128.426,67.285-221.634   c-20.237-51.233-64.208-100.659-102.525-124.641c36.024-1.258,72.465,9.07,102.228,29.487c3.616,2.494,8.832,1.728,11.503-2.157   c2.582-3.758,1.617-8.905-2.157-11.503c-35.196-24.148-78.889-35.393-121.478-31.688c29.922-31.858,48.158-74.892,49.568-118.553   c0.147-4.559-3.431-8.382-8.006-8.529c-4.281-0.229-8.366,3.448-8.529,8.006c-1.168,36.159-15.182,71.73-38.218,99.677   c-11.268-76.072-112.766-103.515-178.469-127.948c-128.704-47.864-91.401-71.892-129.127-106.564   c-31.703-29.143-76.105-43.924-118.076-38.001c-56.269,7.947-105.361,52.65-118.953,107.785   c-56.831,40.109-63.965,120.726-15.104,170.324c-41.611,25.577-46.001,78.697-26.095,123.33   c9.129,20.475,22.527,38.596,37.31,55.558c-17.521,58.42-21.552,123.34-22.255,180.32c-1.229,91.917,30.243,205.757,98.549,259.728   c-6.804,32.94-8.791,42.566-9.336,45.575h-0.049c-1.226,5.984-3.054,11.384-5.573,20.141c-29.532,0.35-56.846,4.116-78.83,24.011   c-98.522,11.604-195.489,68.224-274.575,128.802c-100.03,76.305-124.408,102.203-204.357,200.452   c-0.261,0.323-0.277,0.748-0.484,1.097c-1.257,2.114-1.126,2.462-1.138,4.052c-0.105,9.903,14.16,47.082,20.018,60.444   c-16.694,20.032-55.991,65.968-80.192,73.456c-6.634,2.059-23.137-3.546-35.195-12.026   c-12.581-9.412-205.958-216.857-287.427-310.923c5.344-40.348,4.619-87.9,6.078-129c0.392-11.601,0.212-23.839-6.65-34.509   c-9.689-15.147-31.552-21.829-49.557-15.212c-14.787,5.229-26.862,18.137-33.104,35.375c-2.854,7.755-4.063,11.436-4.733,15.741   c-23.094-23.714-35.155-42.366-59.824-60.511c-41.258-30.317-77.258-7.843-82.83,22.579c-40.826-3.717-65.401,41.058-43.603,75.795   c-21.952,9.9-29.272,46.98-3.564,73.19c-20.382,4.68-25.336,28.173-14.755,46.861c15.221,27.808,42.883,38.167,89.279,63.315   c18.431,9.967,35.881,19.411,55.195,28.676c105.074,162.774,301.573,502.546,497.144,487.683   c24.491-1.677,145.485-69.052,248.875-157.351c22.482,11.425,41.054,18.976,51.778,22.981   c-42.981,81.389-98.271,161.685-156.784,246.54c-11.828,17.146-132.122,191.916-143.035,218.05   c-0.559,1.334-12.791,31.697-9.847,67.592c-282.949,147.884-819.49,798.76-977.953,995.713   c-26.404,32.793-25.947,80.325,1.062,113.003c24.076,29.166,47.452,54.868,70.506,77.541   c-15.185,13.729-27.275,30.785-36.282,51.855c-22.767-9.544-42.954-11.848-59.828-5.903c-30.49,10.7-44.563,51.612-53.839,80.461   c-0.955,0.425-1.85,1.021-2.613,1.824c-5.833,6.111-15.49,9.656-26.486,9.722c-0.147,0-0.278,0-0.409,0   c-39.878,0-62.491-23.497-81.515-54.964c16.888,6.146,36.091,5.542,53.706,4.884l7.206-0.261   c10.081-0.294,20.62-1.405,29.493-7.549c5.572-3.873,18.627-12.925,14.183-31.094c-3.823-15.719-21.911-22.973-38.365-21.748   c-10.67,0.703-20.784,2.01-30.506,3.954c6.928-7.206,13.48-15.212,19.754-24.15c28.364-40.323,3.967-81.348-31.257-71.991   c-14.901,3.921-26.437,13.709-35.277,29.934c-7.212,13.263-16.929,31.558-21.085,50.716   c-19.232-44.849-14.485-74.362-46.234-98.966c-27.31-21.166-60.464-24.834-91.85-10.702c-15.226,0.219-59.368,2.079-83.815,25.016   c-62.715,58.869-76.114,205.246,8.513,299.322c95.603,106.299,249.887,134.446,326.625,223.442   c18.451,21.417,39.535,44.345,69.214,44.345c39.203-0.017,74.09-48.779,93.614-76.442c54.275-27.53,55.701-94.667,61.873-155.456   c22.909-12.016,50.29-35.679,55.341-60.333c2.206-10.61,0.66-21.987-4.208-33.845c26.793-16.746,45.225-38.049,56.87-62.933   c0.297-0.639,0.35-1.309,0.476-1.971c43.663,18.133,88.927,27.001,138.164,27.787c22.063,0.883,48.237-9.056,66.665-29.493   l282.3-312.208c-8.834,109.782-20.372,275.137-27.649,399.869c-2.565,42.989,23.839,83.004,64.198,97.285   c37.859,13.533,72.61,23.733,105.144,30.757c-4.557,21.497-3.829,43.796,2.389,67.531c-23.861,6.422-41.24,16.989-50.884,32.003   c-17.536,27.156-3.55,68.162,6.79,96.658c-1.858,3.403-0.352,14.662-15.94,26.868c-31.466,24.631-63.874,20.084-98.393,6.807   c18.954-6.095,35.597-20.864,50.943-33.686c7.255-5.98,15.277-13.268,18.66-24.019c2.042-6.47,6.83-21.633-7.859-33.283   c-12.647-10.065-31.519-4.461-43.626,6.323c-7.99,7.091-15.196,14.33-21.682,21.83c1.062-9.935,1.323-20.277,0.817-31.176   c-2.26-48.983-46.469-66.87-68.822-37.76c-9.379,12.238-12.5,27.042-9.542,45.292c2.437,14.906,5.982,35.316,14.44,52.995   c-42.135-23.354-56.801-49.874-97.167-49.874c-0.016,0-0.033,0-0.033,0c-34.534,0.014-62.968,17.458-79.101,47.783   c-11.805,9.167-45.665,38.014-50.928,71.185c-13.483,84.854,65.702,208.854,190.158,231.301   c142.939,25.817,277.732-47.399,395.055-23.627c24.427,4.983,52.09,10.539,76.861-4.003c36.207-21.262,33.72-85.625,32.113-121.155   c25.979-54.937-13.903-108.897-46.38-160.743c10.75-23.524,17.877-59.018,6.735-81.605c-4.727-9.729-12.926-17.759-24.049-24.156   c10.131-27.738,12.36-54.51,6.777-81.822c29.287-7.984,57.815-20.022,86.633-36.192c29.035-16.339,48.087-47.156,49.721-80.439   l9.738-204.88V4293.9c-9.768-0.155-16.235-0.335-18.415-0.545c-8.073-1.816-13.481,7.588-8.137,13.562   c1.076,1.203,2.121,2.271,32.296,3.053c7.3,2.366,459.002,0.633,990.128,0.427v4.281c0,4.575,3.693,8.268,8.268,8.268h444.547   c0.118,0,0.218-0.063,0.335-0.067h761.456c4.518,0,8.198-3.681,8.198-8.198v-4.283c406.131,0.034,389.635,0.033,391.483,0.033   c4.575,0,8.268-3.692,8.268-8.268S4646.307,4293.895,4641.732,4293.895z M3085.973,3504.634v-521.114   c0-4.575-3.693-8.268-8.268-8.268h-434.172c159.37-48.023,275.794-196.044,275.794-370.791   c-0.156-153.304,0.251-128.128-0.131-130.193c-10.294-55.244-35.865-444.057-44.149-603.726c4.82,15.8,9.624,31.143,14.346,46.273   c57.229,183.194,42.693,176.689,54.691,178.559c18.293,11.164,66.122,9.121,127.38-4.154   c63.722,105.275,131.747,263.31,184.477,386.724c-1.63,5.918-1.059,8.681,4.635,37.668c1.634,9.209,9.419,15.686,18.502,16.403   c7.712,17.951,14.985,34.723,21.717,49.943c-16.633,23.431-31.727,47.67-45.796,71.536h-59.014c-4.575,0-8.268,3.693-8.268,8.268   v842.87H3085.973z M3437.324,2397.917c-8.212,4.468-15.391,9.441-37.741,20.665c-1.646-0.968-3.088-2.255-4.827-3.07   c-34.992-17.366-78.935-0.677-91.356,40.066c-10.283,2.749-20.633,5.286-31.11,7.33c-1.504,0.288-2.728,1.068-4.085,1.63   c-55.659-130.244-127.57-296.363-194.092-400.367c6.992-32.912,63.716-65.881,89.588-74.6   c35.554-12.138,66.005-10.296,101.709-1.381C3345.706,2140.188,3399.284,2266.892,3437.324,2397.917z M3365.737,2425.268   c34.27,0,58.924,34.566,45.62,67.319c0,0.016-0.017,0.016-0.017,0.033c-11.08,27.57-44.183,39.253-70.39,23.659   C3298.874,2492.444,3315.629,2425.268,3365.737,2425.268z M3532.154,2616.259c11.441,15.598,23.133,31.688,25.25,49.923   c-0.096,1.462,0.008,2.851-0.349,4.373c-2.111,8.748-11.647,16.854-20.315,16.415c-3.972-2.471-8.102-6.197-12.086-10.516   c-7.202-10.34-17.715-22.96-23.545-31.633h-0.016c-2.549-3.791-7.712-4.738-11.487-2.222c-3.774,2.565-4.771,7.712-2.222,11.503   c0,0,0,0,0.016,0c7.618,11.456,15.153,22.892,24.607,33.153c8.958,13.11,18.278,30.222,9.264,43.332   c-6.568,9.739-20.522,14.379-31.813,10.523c-16.516-5.957-44.561-63.472-52.335-79.573c-1.977-4.118-6.944-5.817-11.045-3.856   c-4.117,1.977-5.849,6.928-3.856,11.045c12.655,26.208,37.013,74.348,60.25,91.903c2.958,12.459-1.896,27.242-12.457,34.27   c-12.974,8.578-33.153,5.049-42.335-7.369c-1.861-2.527-4.892-3.629-7.791-3.227c-17.827-26.357-27.702-63.135-36.865-83.078   c-4.597-10.019-19.589-2.996-15.032,6.895c9.717,21.244,22.63,69.585,46.667,96.433c-3.005,13.561-20.227,18.675-36.39,7.73   c-25.397-17.888-41.505-79.275-49.133-107.497c-1.415-5.219-7.81-8.752-14.363-3.329c-12.424,9.232-21.467,18.527-37.074,21.466   c-17.511,3.542-39.453-7.31-25.048-32.466c60.167-104.822,66.422-100.429,65.728-108.341c-0.248-2.776,0.144-0.308-21.935-51.594   c9.785-1.285,19.564-2.908,29.345-4.879c39.087,30.158,92.205,9.413,103.691-35.391c9.641-4.951,18.995-10.361,28.047-16.25   c15.375,63.307,12.208,61.299,17.023,64.549c0.206,0.37,0.294,0.78,0.564,1.125   C3503.231,2575.576,3520.393,2600.129,3532.154,2616.259z M2454.242,1286.638c47.628,28.684,103.444,23.14,153.983,1.618   c-8.915,79.098-5.082,80.865-11.977,85.7c-30.898,21.846-77.678,43.724-124.915,24.035c-39.16-16.207-38.546-26.04-29.247-57.123   C2446.292,1326.961,2445.597,1328.53,2454.242,1286.638z M2336.712,566.428c2.615-20.471,12.157-39.803,26.452-54.568   c-3.379,47.251,14.003,97.84,40.052,138.078c-3.661-0.353-14.388-6.055-34.919,0.196   C2365.698,647.735,2333.026,595.281,2336.712,566.428z M2357.479,1016.727c1.44-116.062,17.089-222.119,112.45-295.264   c71.742,54.099,153.729,63.747,243.052,50.352c-33.038,35.501-32.7,87.096-8.363,121.866   c10.302,14.718,24.476,26.335,35.298,40.675c27.156,35.973,8.197,50.607,6.994,95.665c-0.689,25.706,18.118,35.318,33.687,8.255   c6.49-11.28,30.633-41.215,38.503-49.049c24.141-23.957,55.324-62.735,91.942-55.015c65.796,13.619,45.838,125.155-12.63,158.721   c-18.169,10.392-44.051,13.039-61.436,6.356c-8.219-3.267-20.398-18.914-34.476-14.755c-13.816,4.338-26.544,38.621-32.793,47.891   c-67.795,98.87-218.589,205.069-316.201,133.869C2388.367,1218.357,2356.262,1107.999,2357.479,1016.727z M2374.293,1366.832   c13.637-5.999,28.841-7.833,46.599-8.258c-3.947,29.904,15.898,43.011,44.085,54.694c48.096,20.053,97.904,4.529,140.813-25.784   c6.487-4.591,10.621-11.797,11.323-19.689l0.107-1.109c18.837-0.947,40.773-1.234,54.189,13.184   c18.2,19.619-4.723,45.005-31.649,58.675c-95.403,48.328-232.851,28.612-271.594,4.444   C2337.188,1423.718,2331.913,1385.52,2374.293,1366.832z M1830.239,2104.802c-221.378,16.434-464.861-474.693-486.719-485.102   c-27.505-13.082-51.71-26.897-77.955-40.816c-22.569-12.118-49.113-23.068-61.289-45.293c-3.954-6.993-4.477-14.558-1.34-19.231   c5.245-7.81,22.091-2.435,30.833,1.111c11.667,6.329,24.319,12.088,34.28,17.565c1.138,0.615,2.361,0.86,3.589,0.913   c0.136,0.004,0.262,0.1,0.397,0.1c0.262,0,0.49-0.174,0.752-0.198c8.403-0.821,10.091-11.344,3.415-15.21   c-11.385-6.652-22.398-12.757-34.711-17.81c-18.645-10.018-29.206-19.474-34.192-30.636c-4.363-9.738-2.778-26.535,5.703-32.777   c18.637-13.693,90.458,40.453,108.706,54.443c3.611,2.729,8.807,2.092,11.601-1.536c2.778-3.627,2.091-8.823-1.536-11.601   c-24.564-18.811-74.157-55.535-104.912-59.52c-0.283-0.449-0.458-0.942-0.836-1.344c-11.487-12.14-12.777-31.845-2.908-43.904   c38.606-46.937,120.388,60.227,134.588,60.227c7.817,0,11.263-9.91,5.131-14.755c-20.054-15.845-58.058-57.289-94.953-70.194   c1.092-6.677,4.471-12.894,9.727-17.156c36.698-29.777,82.047,43.243,114.945,73.039c0.002,22.683,6.363,45.767,18.663,65.519   c5.672,9.098,19.897,0.641,14.052-8.758c-11.042-17.73-16.698-38.514-16.277-58.767c0.131-0.723,0.278-1.444,0.214-2.173   c0.245-0.703,0.531-1.387,0.573-2.163c0.832-14.277,0.569-13.343,4.885-25.114c4.575-12.614,12.99-21.895,23.169-25.49   c10.768-3.938,24.542-0.016,30.032,8.578c4.281,6.667,4.363,15.637,4.036,24.999c-1.518,41.231-0.636,90.654-6.438,130.977   c-0.343,2.369,0.359,4.771,1.928,6.585c78.478,90.929,278.734,306.348,292.803,316.413c10.163,7.157,33.61,19.411,49.704,14.346   c34.439-10.664,82.104-72.083,105.635-100.095c88.478,35.195,142.022,86.812,182.757,176.172   C1999.77,2016.655,1856.164,2103.038,1830.239,2104.802z M1988.911,2242.871c60.368-87.528,117.387-170.234,161.4-254.987   c0.358-0.523,0.922-0.842,1.161-1.46c34.215-89.148,50.93-179.26,51.11-275.467c0.016-4.575-3.676-8.284-8.251-8.284h-0.016   c-4.559,0-8.268,3.693-8.268,8.251c-0.16,83.922-13.272,163.086-39.802,241.07c-34.513-129.97-124.893-234.669-257.462-257.573   c71.779-87.857,97.71-114.278,192.397-186.498c89.744-68.754,171.57-108.962,250.018-123.03   c-12.664,26.283,5.997,58.292,28.21,72.149c50.525,31.483,191.938,44.803,287.835-3.725c23.145-11.759,45.837-30.674,47.039-56.708   c302.855,80.49,516.302,252.608,651.488,526.075c-163.494,3.208-350.938,86.993-398.148,138.174   c-17.085-71.656-52.087-180.49-51.709-178.811c-23.643-105.144-57.352-177.806-57.678-178.541   c-1.928-4.117-6.83-5.882-11.013-3.987c-4.134,1.944-5.915,6.863-3.987,11.013c0.237,0.486,16.046,34.593,33.465,89.736   c-4.546,9.967,31.418,568.571,44.556,666.175c-248.17-25.951-835.237-113.633-1040.07-30.931   C1902.475,2368.21,1946.347,2304.601,1988.911,2242.871z M722.392,3749.105c8.84-0.637,19.607,2.729,21.176,9.166   c1.372,5.604-0.245,8.529-7.549,13.578c-3.157,2.194-6.645,3.925-20.539,4.608c-20.299,0.77-48.962,3.394-65.064-9.117   C672.426,3756.735,695.498,3750.902,722.392,3749.105z M658.538,3678.257c9.11-16.736,21.417-22.614,30.636-22.614   c15.34,0,25.957,21.443,7.827,47.254c-14.88,21.13-33.525,39.376-56.731,50.979   C630.418,3729.955,647.868,3697.865,658.538,3678.257z M801.492,4186.724c-22.254-2.892-37.09-20.114-52.793-38.349   c-82.696-95.857-231.029-117.149-326.887-223.72c-78.791-87.618-65.333-223.754-9.461-276.186   c10.015-9.397,26.023-15.03,42.638-17.967c-51.359,44.139-79.681,143.243-51.788,211.916   c52.309,128.871,194.692,138.363,298.799,202.168c26.243,16.073,44.621,40.126,69.247,57.907   c38.397,27.769,52.981,44.045,100.54,33.935C852.908,4161.469,827.049,4189.871,801.492,4186.724z M851.31,4122.82   c-27.785,2.473-46.26-16.308-70.374-33.741c-23.966-17.316-41.829-41.163-70.292-58.61   c-105.87-64.858-242.831-72.902-292.116-194.276c-26.966-66.369,4.391-174.771,68.887-207.919   c26.813-13.807,55.652-11.291,79.132,6.895c17.467,13.545,22.042,31.192,27.336,51.633c6.924,26.702,7.894,26.677,19.635,54.319   c-3.824,0.323-6.937,3.276-7.348,7.216c-3.938,36.535-16.879,64.116-39.59,84.328c-5.686,5.061-2.05,14.444,5.506,14.444   c1.961,0,3.922-0.686,5.506-2.092c23.576-20.982,38.19-49.911,43.709-85.878c7.273,16.262,15.635,32.381,26.08,47.785   c-2.286,6.655,3.63,58.434-32.927,97.03c-4.998,5.285-1.202,13.954,6.013,13.954c2.19,0,4.379-0.866,6.013-2.582   c21.331-22.518,32.977-50.958,36.091-88.607c19.766,21.634,45.173,33.151,73.988,33.151c0.163,0,0.343,0,0.506,0   c13.184-0.067,24.722-3.977,33.491-10.778c42.039,66.673,98.486,108.919,172.631,128.52c0.143,0.039,0.294,0.027,0.439,0.055   C935.932,4057.476,932.482,4115.895,851.31,4122.82z M999.983,3907.94c-4.085,19.951-32.352,44.215-55.064,52.989   c-70.129-19.133-123.493-59.868-162.986-124.408c18.47-57.381,36.22-88.058,92.076-64.155c-1.238,2.902-1.514,3.601-1.702,4.075   c-5.948,14.689-4.085,31.469,5,44.868c28.49,42.032,71.805,80.277,119.964,63.397   C1000.539,3893.088,1001.454,3900.865,999.983,3907.94z M987.614,3870.458c-43.594,13.823-84.949-41.208-96.615-58.43   c-5.663-8.369-7.401-19.455-3.104-29.934c0.131-0.258,0.166,0.026,0.572-1.254c4.042-9.597,4.839-9.19,4.761-12.663   c8.433-21.431,19.77-38.179,34.745-51.4c42.473,39.96,84.064,69.279,126.94,89.289   C1053.604,3807.748,1031.252,3857.014,987.614,3870.458z M1261.871,3799.741c-14.036,15.572-33.447,24.836-54.133,24.052   c-100.214-1.601-183.754-38.379-272.105-122.593c-0.211-0.388-0.304-0.817-0.584-1.178c-0.851-1.097-1.946-1.824-3.118-2.365   c-24.038-23.239-48.433-49.79-73.661-80.345c-22.026-26.682-22.418-65.407-0.915-92.122   c180.442-224.267,732.209-888.808,996.084-1003.012c214.648-94.614,816.016-59.701,1049.351-38.839v121.124   c0,204.406-166.368,370.709-370.873,370.709c-928.098,0-18.356-0.02-620.294,0.049c-4.575,0-8.268,3.693-8.268,8.268   s3.693,8.268,8.268,8.268h80.932C1990.898,2993.591,1399.164,3647.924,1261.871,3799.741z M1571.21,4184.109   c6.715-5.947,17.156-9.885,22.352-5.735c4.526,3.595,5.049,6.879,2.369,15.343c-2.026,6.454-7.974,11.764-13.398,16.225   c-15.344,12.856-36.666,32.679-56.976,32.679c-0.016,0-0.033,0-0.033,0C1536.423,4220.743,1551.079,4202.001,1571.21,4184.109z    M1483.679,4134.699c12.989-16.93,37.631-4.106,39.149,28.463c1.233,26.583-2.321,50.581-13.562,75.047   c-22.434-12.843-28.333-48.92-31.927-70.946C1475.117,4153.587,1477.127,4143.245,1483.679,4134.699z M1901.92,4481.406   c-19.378,11.372-41.633,6.846-65.211,2.075c-122.053-24.83-255.517,48.823-395.398,23.562   c-115.775-20.894-188.806-136.65-176.76-212.429c2.162-13.576,11.364-27.812,22.68-40.308   c-13.508,66.355,24.845,161.996,88.951,199.16c121.005,70.188,236.982-9.768,360.023-23.398c30.679-3.363,60.038,4.366,90.21,3.333   c46.921-1.524,68.604,2.554,100.183-34.756C1926.908,4430.114,1923.68,4468.634,1901.92,4481.406z M1902.149,4400.395   c-20.538,18.928-46.954,15.441-76.289,16.47c-12.255,0.458-24.558-0.751-37.564-1.977c-53.536-5.074-76.353-1.701-168.313,24.33   c-21.176,5.98-43.071,12.173-65.145,17.156c-119.676,27.042-214.172-9.847-247.101-127.088   c-10.294-36.715-9.019-69.23,3.758-96.631c21.78-46.803,69.222-43.781,66.779-43.071c33.536,0,50.779,26.887,82.677,44.23   c4.009,2.177,17.673,9.774,19.374,10.725c-2.737,2.643-3.498,6.82-1.417,10.189c19.281,31.257,25.963,60.995,20.408,90.896   c-0.833,4.477,2.141,8.807,6.634,9.64c4.333,0.839,8.793-2.042,9.64-6.634c5.762-31.055-0.422-62.85-18.09-94.648   c15.738,8.398,32.251,16.022,49.971,21.792c2.02,6.228,38.558,44.228,33.362,96.825c-1.068,11,15.383,12.544,16.47,1.634   c3.057-30.863-5.172-60.491-25.794-92.157c29.041,4.998,56.322-1.564,79.191-19.441c10.377-8.129,17.091-18.284,19.86-29.042   c71.913,26.141,141.584,26.97,215.167-4.275c0.141-0.059,0.208-0.223,0.345-0.288c1.572,2.484,3.138,4.996,4.704,7.461   C1929.795,4297.914,1960.627,4346.442,1902.149,4400.395z M1887.901,4139.47c9.019,18.268,1.552,54.77-11.029,75.619   c-67.106,27.842-134.212,28.414-205.027,1.601c-20.554-56.696-25.356-91.795,33.447-107.138   c4.912,19.426,16.433,31.393,32.597,36.649c48.176,15.727,105.711,19.477,133.64-23.415   C1879.257,4127.412,1884.747,4132.983,1887.901,4139.47z M1855.173,4117.428c-25.882,37.646-92.383,19.509-112.154,13.055   c-9.969-3.247-17.864-11.337-20.652-21.104c-2.924-12.291-2.617-12.652-4.443-14.902c-6.696-23.03-7.934-44.413-3.593-64.755   c53.344,9.943,102.686,11.825,155.041,0.339C1874.601,4056.222,1870.376,4095.951,1855.173,4117.428z M2005.299,3908.774   c-1.356,27.646-17.173,53.25-41.29,66.812c-107.334,60.211-206.367,61.453-365.464,4.608   c-33.463-11.846-55.358-45.031-53.234-80.717c6.429-109.407,12.234-190.254,17.767-269.035   c130.179-199.337,265.481-395.286,405.606-587.717c1.522-1.681,49.231-54.358,46.206-51.018h33.999   C2034.038,3304.169,2012.983,3747.121,2005.299,3908.774z M2894.554,4293.862c-3.414-1.514,29.214-0.613-463.955,0V2991.789   h638.839v512.846h-33.725c-3.443,0-6.382,2.095-7.626,5.082c-0.422,0.995-0.658,2.085-0.658,3.235   c0,2.778,0.005,256.929,0.016,780.911H2894.554z M3043.981,3521.219h33.774c0.087,0,0.157-0.047,0.243-0.049h117.989h276.006   c-0.007,166.233-0.031,755.627-0.033,785.24h-427.979V3521.219z M3776.579,3673.529v-86.84c0-4.685,3.681-8.366,8.366-8.366   h152.426c4.517,0,8.366,3.681,8.366,8.366v86.84c0,4.514-3.849,8.194-8.366,8.194h-152.426   C3780.26,3681.723,3776.579,3678.043,3776.579,3673.529z M4157.557,4238.886c0,4.518-3.681,8.198-8.198,8.198h-330.784   c-4.517,0-8.198-3.681-8.198-8.198v-160.621c0-4.518,3.682-8.202,8.198-8.202h330.784c4.518,0,8.198,3.685,8.198,8.202V4238.886z    M4242.051,3504.706h-524.298v-834.673h863.212v1623.829H4250.25v-780.958C4250.25,3508.386,4246.569,3504.706,4242.051,3504.706z"></path>	<path d="M2512.704,2782.905c11.005,2.001,13.739-14.165,3.202-16.241c-59.565-11.771-72.107-101.908-3.186-159.506   c31.584-26.405,76.223-42.188,122.464-43.299c10.088-0.216,11.564-15.452-0.392-16.536   c-113.44,2.711-188.232,79.004-185.403,156.81C2450.565,2736.289,2470.875,2774.637,2512.704,2782.905z"></path></g>
</svg>
