<?xml version="1.0" encoding="UTF-8"?>
<svg xmlns="http://www.w3.org/2000/svg" xmlns:xlink="http://www.w3.org/1999/xlink" id="b" width="90.721" height="88.255" viewBox="0 0 90.721 88.255">
  <defs>
    <clipPath id="clip-path">
      <rect id="Rectángulo_260" data-name="Rectángulo 260" width="5.528" height="34.129" fill="none"></rect>
    </clipPath>
    <clipPath id="clip-path-2">
      <rect id="Rectángulo_261" data-name="Rectángulo 261" width="5.528" height="27.048" fill="none"></rect>
    </clipPath>
    <clipPath id="clip-path-3">
      <rect id="Rectángulo_264" data-name="Rectángulo 264" width="5.457" height="5.425" fill="none"></rect>
    </clipPath>
    <clipPath id="clip-path-4">
      <rect id="Rectángulo_266" data-name="Rectángulo 266" width="5.459" height="5.425" fill="none"></rect>
    </clipPath>
    <clipPath id="clip-path-5">
      <rect id="Rectángulo_268" data-name="Rectángulo 268" width="76.172" height="10.494" fill="none"></rect>
    </clipPath>
  </defs>
  <g id="c">
    <path id="Trazado_2327" data-name="Trazado 2327" d="M229.96,41.634h5.526V0L229.96,5.384Z" transform="translate(-180.438)" fill="#fff"></path>
    <g id="Grupo_675" data-name="Grupo 675" transform="translate(41.625 7.505)">
      <g id="Grupo_674" data-name="Grupo 674" clip-path="url(#clip-path)">
        <path id="Trazado_2328" data-name="Trazado 2328" d="M193.29,68.979h5.528V34.85l-5.528,5.384Z" transform="translate(-193.29 -34.85)" fill="#fff"></path>
      </g>
    </g>
    <g id="Grupo_677" data-name="Grupo 677" transform="translate(33.926 14.586)">
      <g id="Grupo_676" data-name="Grupo 676" clip-path="url(#clip-path-2)">
        <path id="Trazado_2329" data-name="Trazado 2329" d="M157.54,94.778h5.528V67.73l-5.528,5.384Z" transform="translate(-157.54 -67.73)" fill="#fff"></path>
      </g>
    </g>
    <rect id="Rectángulo_262" data-name="Rectángulo 262" width="5.459" height="5.425" transform="translate(49.619 82.831)" fill="#fff"></rect>
    <g id="Grupo_679" data-name="Grupo 679" transform="translate(41.729 82.831)">
      <g id="Grupo_678" data-name="Grupo 678" clip-path="url(#clip-path-3)">
        <rect id="Rectángulo_263" data-name="Rectángulo 263" width="5.457" height="5.425" fill="#fff"></rect>
      </g>
    </g>
    <g id="Grupo_681" data-name="Grupo 681" transform="translate(33.985 82.831)">
      <g id="Grupo_680" data-name="Grupo 680" clip-path="url(#clip-path-4)">
        <rect id="Rectángulo_265" data-name="Rectángulo 265" width="5.459" height="5.425" fill="#fff"></rect>
      </g>
    </g>
    <path id="Trazado_2330" data-name="Trazado 2330" d="M18.212,214.77H14.1a.355.355,0,0,0-.342.258L9.213,231.154,4.871,215.033a.355.355,0,0,0-.342-.263H.355a.356.356,0,0,0-.355.355v20.366a.356.356,0,0,0,.355.355H2.78a.356.356,0,0,0,.355-.355V218.965l4.486,16.619a.353.353,0,0,0,.342.263h2.412a.355.355,0,0,0,.34-.258l4.718-16.733v16.636a.356.356,0,0,0,.355.355h2.425a.356.356,0,0,0,.355-.355V215.125a.354.354,0,0,0-.355-.355" transform="translate(0 -168.519)" fill="#fff"></path>
    <path id="Trazado_2331" data-name="Trazado 2331" d="M104.232,215.022a.356.356,0,0,0-.34-.252h-3.161a.355.355,0,0,0-.34.254L94.326,235.39a.354.354,0,0,0,.34.454h2.511a.355.355,0,0,0,.342-.261l1.546-5.612h6.508l1.615,5.616a.353.353,0,0,0,.34.256h2.511a.355.355,0,0,0,.34-.457l-6.15-20.366Zm.579,12.18H99.826l2.492-8.991Z" transform="translate(-74.001 -168.519)" fill="#fff"></path>
    <path id="Trazado_2332" data-name="Trazado 2332" d="M186.429,223.668c-.312-.269-1.1-.749-4.273-1.824l-.81-.278a6.821,6.821,0,0,1-2.8-1.456,3.011,3.011,0,0,1-.594-2,2.719,2.719,0,0,1,.879-2.149,3.62,3.62,0,0,1,2.492-.8,3.068,3.068,0,0,1,2.339.825,3.3,3.3,0,0,1,.816,2.4v.211a.356.356,0,0,0,.355.355h2.281a.356.356,0,0,0,.355-.355c0-.047,0-.123.013-.23.009-.131.015-.228.015-.286a5.263,5.263,0,0,0-1.654-4.1,6.483,6.483,0,0,0-4.49-1.479,6.636,6.636,0,0,0-4.7,1.6,5.787,5.787,0,0,0-1.714,4.419,6.374,6.374,0,0,0,.485,2.556A5.149,5.149,0,0,0,176.9,223a12.261,12.261,0,0,0,3.368,1.406l1.5.517a6.338,6.338,0,0,1,2.737,1.445,3.032,3.032,0,0,1,.562,1.975,3.357,3.357,0,0,1-.945,2.55,3.681,3.681,0,0,1-2.655.92,3.856,3.856,0,0,1-2.845-.954,3.963,3.963,0,0,1-.943-2.884v-.728a.356.356,0,0,0-.355-.355h-2.369a.356.356,0,0,0-.355.355c0,.067-.006.17-.013.314-.011.166-.015.286-.015.36a5.932,5.932,0,0,0,6.635,6.609,7.282,7.282,0,0,0,5.106-1.708,6.2,6.2,0,0,0,1.861-4.77,6.877,6.877,0,0,0-.422-2.537,4.638,4.638,0,0,0-1.318-1.843" transform="translate(-136.976 -166.738)" fill="#fff"></path>
    <path id="Trazado_2333" data-name="Trazado 2333" d="M253.33,215.022a.356.356,0,0,0-.34-.252h-3.161a.355.355,0,0,0-.34.254l-6.062,20.366a.354.354,0,0,0,.34.454h2.511a.353.353,0,0,0,.342-.261l1.546-5.612h6.508l1.615,5.616a.353.353,0,0,0,.34.256h2.511a.355.355,0,0,0,.34-.457Zm.579,12.18h-4.985l2.492-8.991Z" transform="translate(-190.992 -168.519)" fill="#fff"></path>
    <path id="Trazado_2334" data-name="Trazado 2334" d="M339.665,231.414q-.087-1.315-.161-2.061a5.169,5.169,0,0,0-1.225-3.159,3.738,3.738,0,0,0-1.585-.941,5.056,5.056,0,0,0,1.951-1.4,5.347,5.347,0,0,0,1.092-3.5,5,5,0,0,0-1.813-4.214,8.728,8.728,0,0,0-5.341-1.363h-6.237a.356.356,0,0,0-.355.355V235.5a.356.356,0,0,0,.355.355h2.425a.354.354,0,0,0,.355-.355v-8.692h2.808a5.709,5.709,0,0,1,3.325.7,3.7,3.7,0,0,1,1.057,2.629c.045.5.095,1.2.142,2.061a8,8,0,0,0,.65,3.5.351.351,0,0,0,.3.159h3.075a.355.355,0,0,0,.215-.635c-.37-.286-.851-1.18-1.031-3.8m-10.539-13.931h3.14a5.429,5.429,0,0,1,3.276.771,2.875,2.875,0,0,1,.948,2.431,3.06,3.06,0,0,1-1.079,2.58,6.112,6.112,0,0,1-3.62.848h-2.664v-6.631Z" transform="translate(-255.788 -168.527)" fill="#fff"></path>
    <path id="Trazado_2335" data-name="Trazado 2335" d="M409.066,214.77h-2.541a.356.356,0,0,0-.355.355v20.366a.356.356,0,0,0,.355.355h2.541a.356.356,0,0,0,.355-.355V215.125a.354.354,0,0,0-.355-.355" transform="translate(-318.701 -168.519)" fill="#fff"></path>
    <g id="Grupo_683" data-name="Grupo 683" transform="translate(7.785 69.879)">
      <g id="Grupo_682" data-name="Grupo 682" clip-path="url(#clip-path-5)">
        <path id="Trazado_2336" data-name="Trazado 2336" d="M41.433,331.069h1.182a4.574,4.574,0,0,1-.844,2.912,2.894,2.894,0,0,1-2.373,1,2.685,2.685,0,0,1-2.451-1.277,7.648,7.648,0,0,1-.8-3.943,8.012,8.012,0,0,1,.788-4.029,2.789,2.789,0,0,1,2.548-1.245,2.776,2.776,0,0,1,3.058,3.064v.123H41.389a2.362,2.362,0,0,0-.515-1.613,1.774,1.774,0,0,0-1.4-.584,1.628,1.628,0,0,0-1.572.991,8.177,8.177,0,0,0-.478,3.293,7.378,7.378,0,0,0,.493,3.2,1.694,1.694,0,0,0,1.626.952,1.6,1.6,0,0,0,1.4-.7,3.433,3.433,0,0,0,.489-1.992v-.157Z" transform="translate(-36.15 -324.49)" fill="#fff"></path>
        <path id="Trazado_2337" data-name="Trazado 2337" d="M78.407,344.062c-.144.022-.267.039-.373.05a2.8,2.8,0,0,1-.289.015.981.981,0,0,1-.743-.28,1.166,1.166,0,0,1-.293-.793,1.955,1.955,0,0,1-.743.879,2.137,2.137,0,0,1-1.154.306,1.706,1.706,0,0,1-1.35-.547,2.233,2.233,0,0,1-.482-1.535,2.132,2.132,0,0,1,.448-1.475,4.55,4.55,0,0,1,1.936-.976l.019-.006q1.224-.384,1.223-.9v-.689a.791.791,0,0,0-.282-.674,1.518,1.518,0,0,0-.9-.211,1.18,1.18,0,0,0-.889.293,1.231,1.231,0,0,0-.293.9v.131H73.193a2.252,2.252,0,0,1,.584-1.671,2.541,2.541,0,0,1,1.779-.528,2.4,2.4,0,0,1,1.665.485,2.005,2.005,0,0,1,.525,1.533v4.376a.628.628,0,0,0,.112.42.461.461,0,0,0,.362.127.934.934,0,0,0,.153-.019.043.043,0,0,0,.028-.009l.009.8Zm-1.772-4.051a3.226,3.226,0,0,1-1.167.579l-.112.039a2.069,2.069,0,0,0-1.014.571,1.574,1.574,0,0,0-.237.943,1.288,1.288,0,0,0,.265.866.932.932,0,0,0,.743.306,1.378,1.378,0,0,0,1.109-.493,2,2,0,0,0,.413-1.327v-1.482Z" transform="translate(-65.049 -333.796)" fill="#fff"></path>
        <path id="Trazado_2338" data-name="Trazado 2338" d="M102.5,341.808h1.111a.129.129,0,0,1-.006.039,1.477,1.477,0,0,0-.022.215,1.159,1.159,0,0,0,.37.928,1.612,1.612,0,0,0,1.081.321,1.5,1.5,0,0,0,1.019-.325,1.113,1.113,0,0,0,.373-.885q0-.882-1.451-1.352l-.028-.006a4.755,4.755,0,0,1-1.884-.941,2.276,2.276,0,0,1,.185-2.89,2.479,2.479,0,0,1,1.712-.551,2.566,2.566,0,0,1,1.757.528,1.974,1.974,0,0,1,.592,1.553v.105h-1.064a1.506,1.506,0,0,0-.327-.984,1.2,1.2,0,0,0-.911-.31,1.446,1.446,0,0,0-.982.291,1.084,1.084,0,0,0-.329.861,1.133,1.133,0,0,0,.088.454.765.765,0,0,0,.254.325,3.97,3.97,0,0,0,1.215.521c.325.095.573.174.752.241a2.56,2.56,0,0,1,1.182.756,1.928,1.928,0,0,1,.355,1.212,2.192,2.192,0,0,1-.691,1.736,2.872,2.872,0,0,1-1.97.612,2.463,2.463,0,0,1-1.774-.581,2.282,2.282,0,0,1-.6-1.714v-.155Z" transform="translate(-88.211 -333.804)" fill="#fff"></path>
        <path id="Trazado_2339" data-name="Trazado 2339" d="M137.207,344.062c-.144.022-.267.039-.373.05a2.8,2.8,0,0,1-.289.015.984.984,0,0,1-.743-.28,1.154,1.154,0,0,1-.291-.793,1.959,1.959,0,0,1-.745.879,2.135,2.135,0,0,1-1.152.306,1.714,1.714,0,0,1-1.352-.547,2.233,2.233,0,0,1-.482-1.535,2.142,2.142,0,0,1,.448-1.475,4.522,4.522,0,0,1,1.936-.976l.019-.006q1.224-.384,1.225-.9v-.689a.791.791,0,0,0-.282-.674,1.518,1.518,0,0,0-.9-.211,1.18,1.18,0,0,0-.889.293,1.231,1.231,0,0,0-.291.9v.131H132a2.243,2.243,0,0,1,.584-1.671,2.541,2.541,0,0,1,1.779-.528,2.4,2.4,0,0,1,1.665.485,2,2,0,0,1,.525,1.533v4.376a.629.629,0,0,0,.112.42.456.456,0,0,0,.36.127.934.934,0,0,0,.153-.019.047.047,0,0,0,.028-.009l.006.8Zm-1.772-4.051a3.227,3.227,0,0,1-1.167.579l-.112.039a2.069,2.069,0,0,0-1.014.571,1.574,1.574,0,0,0-.235.943,1.3,1.3,0,0,0,.263.866.935.935,0,0,0,.743.306,1.378,1.378,0,0,0,1.109-.493,2,2,0,0,0,.413-1.327v-1.482Z" transform="translate(-111.186 -333.796)" fill="#fff"></path>
        <path id="Trazado_2340" data-name="Trazado 2340" d="M183.031,335.614h-1.049v-.943a1.431,1.431,0,0,1-.625.795,2.041,2.041,0,0,1-1.111.3,2.085,2.085,0,0,1-1.886-1.057,5.919,5.919,0,0,1-.65-3.071,4.8,4.8,0,0,1,.655-2.716,2.076,2.076,0,0,1,1.82-.965,2.256,2.256,0,0,1,1.116.267,1.168,1.168,0,0,1,.607.68v-3.3h1.126v10.014Zm-1.049-3.8a5.28,5.28,0,0,0-.345-2.283,1.351,1.351,0,0,0-2.332.052,4.721,4.721,0,0,0-.375,2.154,5.7,5.7,0,0,0,.357,2.356,1.187,1.187,0,0,0,1.137.732,1.249,1.249,0,0,0,1.193-.689,5.327,5.327,0,0,0,.364-2.321" transform="translate(-147.225 -325.361)" fill="#fff"></path>
        <path id="Trazado_2341" data-name="Trazado 2341" d="M213.053,341.513h1.1a2.968,2.968,0,0,1-.65,2.029,2.316,2.316,0,0,1-1.809.7,2.116,2.116,0,0,1-1.908-.943,5.458,5.458,0,0,1-.616-2.92,5.888,5.888,0,0,1,.616-3.067,2.124,2.124,0,0,1,1.936-.973,2.154,2.154,0,0,1,1.854.827,4.248,4.248,0,0,1,.607,2.517c0,.177,0,.312,0,.4s-.006.172-.011.248l-3.844.006v.332a4.514,4.514,0,0,0,.349,2.048,1.17,1.17,0,0,0,1.1.644,1.091,1.091,0,0,0,.935-.485,2.231,2.231,0,0,0,.342-1.318v-.052Zm-2.731-2.022h2.718v-.2a3.009,3.009,0,0,0-.323-1.557,1.064,1.064,0,0,0-.969-.523,1.177,1.177,0,0,0-1.072.562,3.306,3.306,0,0,0-.351,1.719" transform="translate(-171.91 -333.788)" fill="#fff"></path>
        <path id="Trazado_2342" data-name="Trazado 2342" d="M256.212,335.614V325.6h2.793a3.245,3.245,0,0,1,2.177.6,2.412,2.412,0,0,1,.678,1.908,2.558,2.558,0,0,1-.364,1.441,1.874,1.874,0,0,1-1.116.745,2.117,2.117,0,0,1,1.376.777,3.274,3.274,0,0,1-.362,3.8,3.221,3.221,0,0,1-2.281.752H256.21Zm1.154-5.754h1.251a2.448,2.448,0,0,0,1.581-.39,1.687,1.687,0,0,0,.457-1.339,1.5,1.5,0,0,0-.463-1.273,2.718,2.718,0,0,0-1.643-.368h-1.182v3.368Zm0,4.766h1.523a2.324,2.324,0,0,0,1.57-.429,1.81,1.81,0,0,0,.48-1.406,2.008,2.008,0,0,0-.51-1.555,2.63,2.63,0,0,0-1.749-.454h-1.314v3.844Z" transform="translate(-208.82 -325.361)" fill="#fff"></path>
        <path id="Trazado_2343" data-name="Trazado 2343" d="M290.46,340.3a5.2,5.2,0,0,1,.691-2.989,2.422,2.422,0,0,1,2.117-.973,2.452,2.452,0,0,1,2.13.963,6.9,6.9,0,0,1,0,5.985,2.873,2.873,0,0,1-4.268.009,5.235,5.235,0,0,1-.672-3m1.2,0a5.414,5.414,0,0,0,.368,2.365,1.3,1.3,0,0,0,1.245.685,1.28,1.28,0,0,0,1.234-.7,7.636,7.636,0,0,0,0-4.7,1.291,1.291,0,0,0-1.234-.687,1.309,1.309,0,0,0-1.24.678,5.316,5.316,0,0,0-.373,2.358" transform="translate(-235.694 -333.788)" fill="#fff"></path>
        <rect id="Rectángulo_267" data-name="Rectángulo 267" width="1.111" height="10.014" transform="translate(61.855 0.239)" fill="#fff"></rect>
        <path id="Trazado_2344" data-name="Trazado 2344" d="M335.38,341.808h1.113a.129.129,0,0,1-.006.039,1.869,1.869,0,0,0-.022.215,1.153,1.153,0,0,0,.373.928,1.616,1.616,0,0,0,1.081.321,1.491,1.491,0,0,0,1.019-.325,1.113,1.113,0,0,0,.373-.885q0-.882-1.451-1.352l-.028-.006a4.771,4.771,0,0,1-1.884-.941,2.276,2.276,0,0,1,.185-2.89,2.479,2.479,0,0,1,1.712-.551,2.575,2.575,0,0,1,1.759.528,1.974,1.974,0,0,1,.592,1.553v.105h-1.064a1.517,1.517,0,0,0-.325-.984,1.2,1.2,0,0,0-.911-.31,1.456,1.456,0,0,0-.984.291,1.084,1.084,0,0,0-.329.861,1.133,1.133,0,0,0,.086.454.765.765,0,0,0,.254.325,3.964,3.964,0,0,0,1.217.521c.323.095.575.174.752.241a2.56,2.56,0,0,1,1.182.756,1.941,1.941,0,0,1,.355,1.212,2.191,2.191,0,0,1-.691,1.736,2.872,2.872,0,0,1-1.97.612,2.472,2.472,0,0,1-1.777-.581,2.282,2.282,0,0,1-.6-1.714v-.155Z" transform="translate(-270.94 -333.804)" fill="#fff"></path>
        <path id="Trazado_2345" data-name="Trazado 2345" d="M370.1,344.062c-.144.022-.267.039-.373.05a2.8,2.8,0,0,1-.289.015.984.984,0,0,1-.743-.28,1.154,1.154,0,0,1-.291-.793,1.968,1.968,0,0,1-.743.879,2.137,2.137,0,0,1-1.154.306,1.711,1.711,0,0,1-1.352-.547,2.233,2.233,0,0,1-.482-1.535,2.132,2.132,0,0,1,.45-1.475,4.525,4.525,0,0,1,1.934-.976l.022-.006q1.224-.384,1.223-.9v-.689a.786.786,0,0,0-.282-.674,1.518,1.518,0,0,0-.9-.211,1.183,1.183,0,0,0-.889.293,1.222,1.222,0,0,0-.293.9v.131h-1.049a2.243,2.243,0,0,1,.584-1.671,2.541,2.541,0,0,1,1.779-.528,2.4,2.4,0,0,1,1.665.485,2,2,0,0,1,.523,1.533v4.376a.628.628,0,0,0,.112.42.456.456,0,0,0,.36.127.908.908,0,0,0,.153-.019.047.047,0,0,0,.028-.009l.006.8Zm-1.772-4.051a3.246,3.246,0,0,1-1.167.579l-.112.039a2.069,2.069,0,0,0-1.014.571,1.575,1.575,0,0,0-.235.943,1.3,1.3,0,0,0,.263.866.935.935,0,0,0,.743.306,1.375,1.375,0,0,0,1.109-.493,2,2,0,0,0,.414-1.327v-1.482Z" transform="translate(-293.923 -333.796)" fill="#fff"></path>
      </g>
    </g>
  </g>
</svg>
